<svg id="svg" version="1.1" xmlns="http://www.w3.org/2000/svg" xmlns:xlink="http://www.w3.org/1999/xlink" width="400" height="400" viewBox="0, 0, 400,400"><g id="svgg"><path id="path0" d="M158.004 69.810 C 152.630 70.486,151.384 72.380,154.249 75.516 C 158.403 80.061,165.935 83.008,177.726 84.702 C 186.141 85.911,188.458 86.570,190.371 88.298 C 192.091 89.852,191.468 90.844,188.695 90.965 C 184.948 91.129,181.371 90.037,177.563 87.567 L 176.226 86.700 171.513 86.879 C 168.921 86.977,166.800 87.138,166.800 87.236 C 166.800 88.077,175.408 92.507,179.700 93.875 C 188.145 96.566,200.793 96.460,202.980 93.680 C 205.069 91.024,198.830 85.230,190.627 82.209 C 186.829 80.810,182.766 79.937,174.700 78.785 C 166.353 77.592,164.400 76.904,164.400 75.158 C 164.400 73.208,171.018 74.102,175.265 76.624 L 176.635 77.439 181.318 77.293 C 183.893 77.213,186.000 77.069,186.000 76.972 C 186.000 76.548,181.228 73.815,178.600 72.734 C 172.628 70.278,164.012 69.055,158.004 69.810 M192.893 70.078 C 190.126 70.625,189.038 71.825,189.783 73.509 C 190.180 74.406,191.752 76.535,192.548 77.254 C 192.881 77.554,199.233 78.114,203.255 78.197 C 203.340 78.199,203.047 77.742,202.605 77.182 C 200.176 74.110,204.646 73.295,209.979 75.838 C 213.884 77.701,214.429 79.787,211.912 83.245 C 208.689 87.674,208.810 90.407,212.400 94.208 L 213.500 95.373 228.800 95.500 C 242.005 95.610,244.059 95.589,243.800 95.344 C 243.635 95.188,242.132 93.922,240.460 92.530 L 237.420 90.000 229.310 90.000 C 222.953 90.000,221.201 89.946,221.204 89.750 C 221.215 89.163,222.014 87.809,223.054 86.617 C 226.754 82.375,225.525 79.084,218.729 75.036 C 211.586 70.781,200.296 68.615,192.893 70.078 M220.600 70.282 C 220.600 70.327,223.503 72.787,227.050 75.748 C 230.597 78.709,237.401 84.394,242.169 88.381 L 250.838 95.631 262.469 95.544 C 274.480 95.455,276.240 95.347,277.947 94.597 C 282.887 92.426,273.213 84.593,263.189 82.647 C 261.195 82.260,261.097 82.142,262.100 81.341 C 265.616 78.536,254.343 71.537,244.492 70.409 C 242.817 70.217,220.600 70.099,220.600 70.282 M135.623 89.770 C 133.832 98.312,132.351 105.459,132.333 105.653 C 132.292 106.090,138.858 111.704,138.985 111.342 C 139.032 111.209,139.533 108.895,140.097 106.200 C 140.906 102.342,141.190 101.300,141.435 101.300 C 141.606 101.300,145.917 104.810,151.015 109.100 C 156.114 113.390,160.790 117.322,161.408 117.838 L 162.530 118.776 163.589 113.679 C 164.171 110.875,164.614 108.555,164.574 108.523 C 164.122 108.171,144.003 91.256,143.731 90.999 C 143.374 90.662,143.397 90.487,144.495 85.297 C 145.426 80.895,145.581 79.899,145.364 79.701 C 145.219 79.568,143.701 78.286,141.990 76.850 L 138.881 74.241 135.623 89.770 M245.800 75.406 C 247.232 75.629,250.130 76.949,250.052 77.343 C 250.026 77.476,250.125 77.539,250.273 77.483 C 250.704 77.317,251.833 78.748,251.761 79.370 C 251.712 79.798,251.597 79.899,251.165 79.893 C 250.871 79.890,250.673 79.957,250.727 80.043 C 250.780 80.129,249.125 80.200,247.049 80.200 L 243.275 80.200 242.735 79.636 C 242.437 79.326,242.263 78.997,242.347 78.904 C 242.431 78.812,242.381 78.805,242.235 78.889 C 241.917 79.073,240.952 78.239,241.137 77.940 C 241.211 77.821,241.161 77.801,241.016 77.890 C 240.717 78.075,239.758 77.230,239.937 76.940 C 240.011 76.821,239.961 76.801,239.816 76.890 C 239.550 77.054,238.548 76.246,238.704 75.994 C 238.754 75.912,238.643 75.858,238.456 75.873 C 238.268 75.888,238.083 75.742,238.043 75.550 C 237.957 75.135,243.414 75.034,245.800 75.406 M258.958 85.316 C 260.991 85.733,262.819 86.624,264.022 87.784 C 266.085 89.772,265.300 90.200,259.583 90.200 L 255.553 90.200 252.677 87.794 C 251.095 86.471,249.800 85.301,249.800 85.194 C 249.800 84.855,257.193 84.954,258.958 85.316 M170.905 100.650 C 170.791 100.997,123.406 327.410,123.263 328.289 L 123.148 329.000 146.557 329.000 L 169.967 329.000 170.170 328.050 C 170.282 327.528,174.300 308.335,179.100 285.400 C 183.900 262.465,187.918 243.273,188.030 242.750 L 188.233 241.800 207.867 241.797 C 249.609 241.790,260.000 241.085,276.000 237.173 C 300.999 231.060,318.053 215.674,328.066 190.200 C 336.773 168.047,336.470 144.432,327.266 127.900 C 317.431 110.232,301.778 102.256,273.700 100.604 C 268.304 100.286,171.010 100.330,170.905 100.650 M130.832 112.550 C 129.305 119.763,128.977 121.453,129.063 121.676 C 129.179 121.978,156.797 145.269,156.908 145.158 C 156.997 145.070,159.000 135.620,159.000 135.292 C 159.000 135.110,132.767 112.845,131.381 111.850 C 131.069 111.626,131.012 111.699,130.832 112.550 M127.334 129.150 C 127.145 130.113,125.658 137.231,124.029 144.968 L 121.067 159.036 124.374 161.821 C 126.615 163.708,127.725 164.524,127.818 164.353 C 127.893 164.214,128.332 162.255,128.794 160.000 C 129.888 154.653,129.957 154.400,130.315 154.400 C 130.479 154.400,135.263 158.313,140.945 163.095 C 146.628 167.877,151.302 171.764,151.333 171.734 C 151.418 171.649,153.400 162.215,153.400 161.897 C 153.400 161.745,148.675 157.642,142.900 152.779 C 133.671 145.009,132.400 143.871,132.400 143.382 C 132.400 143.076,132.853 140.686,133.406 138.070 C 133.960 135.454,134.387 133.211,134.356 133.086 C 134.307 132.885,127.934 127.400,127.750 127.400 C 127.710 127.400,127.523 128.188,127.334 129.150 M254.260 137.931 C 256.419 138.004,258.152 138.116,258.111 138.181 C 258.071 138.247,258.488 138.268,259.039 138.229 C 260.910 138.097,268.874 138.918,268.686 139.223 C 268.627 139.318,268.720 139.341,268.892 139.275 C 269.317 139.112,271.823 139.600,271.688 139.820 C 271.628 139.916,271.716 139.943,271.883 139.879 C 272.610 139.600,278.369 142.228,278.245 142.783 C 278.215 142.919,278.286 142.970,278.404 142.898 C 278.694 142.718,280.042 143.770,279.873 144.044 C 279.788 144.181,279.832 144.204,279.989 144.107 C 280.310 143.908,282.848 146.385,282.705 146.758 C 282.650 146.902,282.683 146.972,282.780 146.913 C 283.038 146.753,283.459 147.343,283.286 147.622 C 283.195 147.770,283.223 147.809,283.360 147.725 C 283.647 147.547,284.281 148.506,284.086 148.822 C 283.994 148.971,284.023 149.009,284.163 148.923 C 284.647 148.624,286.303 152.652,286.911 155.606 C 287.257 157.287,287.564 164.925,287.278 164.748 C 287.179 164.686,287.131 165.127,287.170 165.743 C 287.208 166.351,287.162 166.800,287.066 166.741 C 286.971 166.682,286.927 166.998,286.970 167.443 C 287.019 167.962,286.973 168.207,286.842 168.126 C 286.718 168.049,286.678 168.155,286.740 168.393 C 286.971 169.277,285.166 175.726,284.758 175.474 C 284.625 175.392,284.595 175.430,284.682 175.571 C 284.884 175.898,284.617 176.634,284.355 176.472 C 284.220 176.389,284.196 176.432,284.292 176.586 C 284.475 176.883,283.819 178.435,283.574 178.284 C 283.481 178.226,283.457 178.315,283.520 178.480 C 283.741 179.056,280.173 184.930,279.758 184.674 C 279.623 184.591,279.595 184.630,279.686 184.778 C 279.871 185.077,279.429 185.642,279.146 185.467 C 279.023 185.390,278.998 185.436,279.086 185.578 C 279.271 185.877,278.829 186.442,278.546 186.267 C 278.421 186.189,278.399 186.236,278.490 186.384 C 278.675 186.683,277.830 187.642,277.540 187.463 C 277.419 187.388,277.401 187.439,277.494 187.590 C 277.693 187.913,274.016 191.649,273.641 191.505 C 273.497 191.450,273.426 191.480,273.483 191.573 C 273.637 191.822,272.667 192.665,272.410 192.506 C 272.289 192.431,272.215 192.482,272.245 192.619 C 272.353 193.105,266.623 196.886,265.779 196.886 C 265.586 196.886,265.445 196.963,265.464 197.058 C 265.560 197.520,257.744 200.537,256.974 200.335 C 256.745 200.275,256.650 200.319,256.729 200.448 C 256.813 200.583,256.672 200.622,256.336 200.558 C 256.048 200.503,255.855 200.527,255.907 200.611 C 256.037 200.821,254.473 201.069,254.176 200.885 C 254.017 200.787,253.991 200.824,254.098 200.996 C 254.218 201.191,254.107 201.232,253.639 201.163 C 253.299 201.113,253.060 201.135,253.107 201.212 C 253.225 201.402,247.690 202.264,247.091 202.149 C 246.827 202.099,246.652 202.122,246.700 202.200 C 246.859 202.457,238.864 203.177,231.000 203.613 C 222.968 204.058,196.270 204.106,196.243 203.675 C 196.191 202.860,196.853 199.809,197.055 199.934 C 197.179 200.011,197.201 199.963,197.109 199.815 C 196.891 199.462,197.597 195.975,197.855 196.134 C 197.979 196.211,198.001 196.163,197.909 196.015 C 197.691 195.662,198.397 192.175,198.655 192.334 C 198.779 192.411,198.801 192.363,198.709 192.215 C 198.491 191.862,199.197 188.375,199.455 188.534 C 199.579 188.611,199.601 188.563,199.509 188.415 C 199.291 188.062,199.997 184.575,200.255 184.734 C 200.379 184.811,200.401 184.763,200.309 184.615 C 200.091 184.262,200.797 180.775,201.055 180.934 C 201.179 181.011,201.201 180.963,201.109 180.815 C 200.891 180.462,201.597 176.975,201.855 177.134 C 201.979 177.211,202.001 177.163,201.909 177.015 C 201.691 176.662,202.397 173.175,202.655 173.334 C 202.779 173.411,202.801 173.363,202.709 173.215 C 202.491 172.862,203.197 169.375,203.455 169.534 C 203.579 169.611,203.601 169.563,203.509 169.415 C 203.291 169.062,203.997 165.575,204.255 165.734 C 204.379 165.811,204.401 165.763,204.309 165.615 C 204.091 165.262,204.797 161.775,205.055 161.934 C 205.179 162.011,205.201 161.963,205.109 161.815 C 204.913 161.497,205.592 157.971,205.822 158.114 C 205.917 158.173,205.945 158.090,205.884 157.929 C 205.710 157.478,206.620 153.189,206.858 153.336 C 206.979 153.411,207.000 153.362,206.909 153.215 C 206.691 152.862,207.397 149.375,207.655 149.534 C 207.779 149.611,207.801 149.563,207.709 149.415 C 207.491 149.062,208.197 145.575,208.455 145.734 C 208.579 145.811,208.601 145.763,208.509 145.615 C 208.313 145.297,208.992 141.771,209.222 141.914 C 209.317 141.973,209.344 141.887,209.282 141.724 C 209.178 141.454,209.722 138.301,209.933 137.950 C 210.044 137.766,248.822 137.749,254.260 137.931 M121.700 167.265 C 120.369 167.874,119.145 169.681,118.425 172.102 C 117.906 173.844,114.358 190.759,114.440 191.098 C 114.473 191.235,119.135 195.245,124.800 200.009 C 130.465 204.773,136.729 210.045,138.721 211.723 L 142.342 214.775 143.276 210.337 C 143.790 207.897,144.261 205.585,144.323 205.200 L 144.436 204.500 139.218 200.122 C 136.348 197.715,134.000 195.722,134.000 195.694 C 134.000 195.666,134.310 194.195,134.688 192.426 C 136.296 184.914,136.158 181.113,134.118 176.699 C 131.315 170.630,124.936 165.785,121.700 167.265 M125.312 179.181 C 125.250 179.281,125.379 179.316,125.599 179.258 C 126.058 179.138,127.071 179.723,126.896 180.006 C 126.832 180.110,126.904 180.147,127.058 180.089 C 127.395 179.959,127.887 180.498,127.702 180.796 C 127.630 180.914,127.689 180.985,127.835 180.955 C 128.361 180.846,129.261 183.108,129.358 184.785 C 129.461 186.568,129.078 189.272,128.751 189.070 C 128.622 188.990,128.597 189.034,128.689 189.182 C 128.910 189.541,128.625 190.800,128.322 190.800 C 127.963 190.800,127.365 190.105,127.550 189.902 C 127.632 189.810,127.581 189.805,127.435 189.889 C 127.117 190.073,126.152 189.239,126.337 188.940 C 126.411 188.821,126.361 188.801,126.216 188.890 C 125.917 189.075,124.958 188.230,125.137 187.940 C 125.211 187.821,125.161 187.801,125.015 187.891 C 124.715 188.076,123.557 187.031,123.738 186.738 C 123.811 186.621,123.760 186.601,123.616 186.690 C 123.338 186.862,122.352 186.040,122.517 185.773 C 122.574 185.680,122.481 185.658,122.310 185.724 C 122.089 185.809,122.000 185.719,122.000 185.410 C 122.000 185.171,122.067 185.018,122.150 185.068 C 122.233 185.119,122.307 184.832,122.317 184.430 C 122.341 183.367,122.802 181.377,122.996 181.498 C 123.088 181.554,123.112 181.406,123.050 181.169 C 122.978 180.892,123.013 180.785,123.150 180.869 C 123.280 180.949,123.326 180.862,123.269 180.643 C 123.135 180.129,123.963 179.144,124.428 179.265 C 124.633 179.319,124.750 179.281,124.688 179.181 C 124.627 179.082,124.767 179.000,125.000 179.000 C 125.233 179.000,125.373 179.082,125.312 179.181 M115.600 204.387 C 109.259 206.323,106.255 219.124,109.698 229.537 C 112.979 239.460,123.458 249.340,130.067 248.741 C 137.359 248.079,141.041 233.612,136.746 222.492 C 132.734 212.102,121.588 202.559,115.600 204.387 M119.948 216.125 C 120.194 216.191,120.347 216.324,120.287 216.420 C 120.228 216.517,120.310 216.545,120.470 216.484 C 121.043 216.264,124.136 218.219,123.877 218.638 C 123.789 218.779,123.829 218.806,123.984 218.710 C 124.262 218.538,125.248 219.360,125.083 219.627 C 125.026 219.720,125.097 219.750,125.242 219.695 C 125.615 219.551,128.492 222.489,128.294 222.810 C 128.200 222.962,128.219 223.012,128.342 222.936 C 128.629 222.759,129.273 223.520,129.089 223.818 C 128.995 223.970,129.022 224.010,129.160 223.925 C 129.447 223.747,130.081 224.706,129.886 225.022 C 129.792 225.175,129.823 225.209,129.974 225.116 C 130.276 224.929,131.269 227.055,131.287 227.929 C 131.294 228.276,131.361 228.523,131.435 228.477 C 132.302 227.946,131.699 234.208,130.748 235.605 C 130.038 236.649,127.051 238.050,127.670 237.049 C 127.751 236.917,127.654 236.876,127.413 236.939 C 126.570 237.159,123.010 235.270,123.321 234.767 C 123.409 234.623,123.373 234.593,123.222 234.686 C 122.943 234.859,122.353 234.438,122.513 234.180 C 122.572 234.083,122.500 234.051,122.353 234.107 C 122.088 234.209,120.955 233.196,120.967 232.869 C 120.971 232.776,120.862 232.722,120.726 232.750 C 120.419 232.811,119.158 231.538,119.240 231.250 C 119.273 231.135,119.210 231.026,119.100 231.008 C 118.712 230.946,117.990 230.116,118.092 229.849 C 118.149 229.701,118.110 229.632,118.005 229.697 C 117.737 229.862,116.728 228.278,116.912 227.981 C 117.008 227.825,116.978 227.790,116.826 227.884 C 116.537 228.062,115.714 226.312,115.882 225.875 C 115.944 225.712,115.915 225.629,115.818 225.689 C 115.720 225.750,115.520 225.327,115.374 224.750 C 114.926 222.978,115.089 218.584,115.591 218.895 C 115.686 218.953,115.724 218.843,115.676 218.650 C 115.561 218.182,116.339 216.939,116.634 217.121 C 116.773 217.207,116.807 217.173,116.721 217.034 C 116.339 216.415,118.626 215.771,119.948 216.125 M106.041 241.214 C 103.790 242.358,103.194 244.065,100.391 257.412 C 98.430 266.749,98.378 267.066,98.733 267.410 C 99.837 268.478,126.275 290.591,126.355 290.512 C 126.406 290.460,126.916 288.193,127.487 285.475 L 128.526 280.532 127.813 279.903 C 127.421 279.557,124.873 277.402,122.150 275.114 C 116.661 270.502,116.774 270.656,117.573 268.900 C 118.357 267.176,118.761 267.144,125.491 268.277 C 128.456 268.776,130.895 269.166,130.910 269.142 C 130.926 269.119,131.454 266.625,132.083 263.600 C 132.711 260.575,133.265 257.962,133.313 257.792 C 133.435 257.360,123.684 255.489,122.370 255.693 C 120.838 255.931,120.208 256.216,119.674 256.916 C 118.838 258.013,118.675 257.831,118.540 255.650 C 118.038 247.530,110.574 238.910,106.041 241.214 M109.722 253.365 C 109.666 253.455,109.818 253.523,110.060 253.515 C 110.325 253.506,110.478 253.606,110.445 253.765 C 110.414 253.914,110.487 253.970,110.610 253.894 C 111.145 253.563,112.633 255.652,112.985 257.229 C 113.235 258.349,113.039 262.048,112.739 261.863 C 112.621 261.789,112.601 261.839,112.691 261.985 C 112.887 262.303,112.208 265.829,111.978 265.686 C 111.883 265.627,111.858 265.719,111.924 265.890 C 112.091 266.326,111.541 266.287,111.131 265.834 C 110.948 265.632,110.867 265.393,110.950 265.302 C 111.032 265.210,110.981 265.205,110.835 265.289 C 110.517 265.473,109.552 264.639,109.737 264.340 C 109.811 264.221,109.761 264.201,109.616 264.290 C 109.317 264.475,108.358 263.630,108.537 263.340 C 108.611 263.221,108.561 263.201,108.415 263.291 C 108.135 263.464,106.951 262.441,107.117 262.172 C 107.174 262.080,107.098 262.052,106.948 262.109 C 106.439 262.305,105.961 261.514,106.109 260.722 C 106.189 260.297,106.329 260.056,106.453 260.133 C 106.579 260.211,106.602 260.164,106.509 260.015 C 106.291 259.662,106.997 256.175,107.255 256.334 C 107.379 256.411,107.401 256.363,107.309 256.215 C 107.081 255.846,107.586 254.274,108.116 253.702 C 108.546 253.237,109.987 252.935,109.722 253.365 M98.493 277.880 C 97.144 278.468,95.796 280.441,95.126 282.810 C 94.882 283.672,91.301 300.517,91.140 301.559 C 91.118 301.702,97.399 307.122,105.098 313.605 L 119.096 325.392 120.042 320.946 C 120.562 318.501,121.013 316.180,121.044 315.789 C 121.099 315.087,121.032 315.020,115.950 310.731 C 113.118 308.340,110.800 306.307,110.800 306.213 C 110.800 306.120,111.114 304.575,111.498 302.782 C 113.127 295.168,112.934 291.647,110.628 286.900 C 107.731 280.938,101.724 276.473,98.493 277.880 M103.420 290.270 C 103.794 290.528,104.075 290.850,104.045 290.985 C 104.015 291.119,104.076 291.176,104.182 291.111 C 104.696 290.793,105.875 293.158,106.119 294.999 C 106.265 296.100,106.048 298.653,105.820 298.512 C 105.739 298.462,105.713 298.699,105.763 299.039 C 105.832 299.507,105.791 299.618,105.596 299.498 C 105.424 299.391,105.387 299.417,105.485 299.576 C 105.759 300.020,105.397 301.430,105.031 301.349 C 104.849 301.309,104.725 301.162,104.755 301.023 C 104.785 300.884,104.712 300.831,104.590 300.906 C 104.313 301.078,103.369 300.212,103.537 299.940 C 103.611 299.821,103.561 299.801,103.416 299.890 C 103.117 300.075,102.158 299.230,102.337 298.940 C 102.411 298.821,102.361 298.801,102.215 298.891 C 101.915 299.076,100.757 298.031,100.938 297.738 C 101.011 297.621,100.960 297.601,100.816 297.690 C 100.538 297.862,99.552 297.040,99.717 296.773 C 99.774 296.680,99.696 296.653,99.542 296.711 C 99.389 296.770,99.149 296.679,99.007 296.509 C 98.712 296.154,99.302 292.516,99.622 292.714 C 99.717 292.773,99.743 292.685,99.679 292.519 C 99.527 292.120,99.921 290.955,100.426 290.312 C 100.978 289.610,102.436 289.589,103.420 290.270 " stroke="none" fill="#4484c4" fill-rule="evenodd"></path><path id="path1" d="M161.256 69.547 C 161.782 69.589,162.592 69.588,163.056 69.546 C 163.520 69.504,163.090 69.470,162.100 69.471 C 161.110 69.472,160.730 69.506,161.256 69.547 M158.053 69.744 C 158.357 69.789,158.807 69.788,159.053 69.741 C 159.299 69.693,159.050 69.656,158.500 69.657 C 157.950 69.659,157.749 69.698,158.053 69.744 M165.354 69.745 C 165.713 69.789,166.253 69.789,166.554 69.743 C 166.854 69.697,166.560 69.661,165.900 69.662 C 165.240 69.663,164.994 69.700,165.354 69.745 M196.150 69.749 C 197.278 69.785,199.123 69.785,200.250 69.749 C 201.378 69.714,200.455 69.684,198.200 69.684 C 195.945 69.684,195.023 69.714,196.150 69.749 M155.095 70.205 C 153.843 70.602,152.599 71.584,152.601 72.174 C 152.601 72.369,152.759 72.241,152.993 71.858 C 153.467 71.081,154.635 70.455,156.278 70.098 C 157.027 69.935,157.268 69.830,156.900 69.827 C 156.570 69.825,155.758 69.995,155.095 70.205 M167.752 69.941 C 168.001 69.989,168.361 69.987,168.552 69.937 C 168.744 69.887,168.540 69.848,168.100 69.850 C 167.660 69.853,167.504 69.894,167.752 69.941 M192.500 69.936 C 190.809 70.316,189.400 71.287,189.400 72.071 C 189.401 72.412,189.472 72.359,189.750 71.814 C 190.170 70.989,191.223 70.408,192.893 70.078 C 193.557 69.947,193.830 69.841,193.500 69.843 C 193.170 69.845,192.720 69.887,192.500 69.936 M203.053 69.944 C 203.357 69.989,203.807 69.988,204.053 69.941 C 204.299 69.893,204.050 69.856,203.500 69.857 C 202.950 69.859,202.749 69.898,203.053 69.944 M169.700 70.211 C 170.713 70.421,171.532 70.412,170.700 70.200 C 170.370 70.116,169.830 70.047,169.500 70.047 C 168.996 70.046,169.027 70.072,169.700 70.211 M204.850 70.138 C 205.043 70.188,205.357 70.188,205.550 70.138 C 205.743 70.088,205.585 70.046,205.200 70.046 C 204.815 70.046,204.658 70.088,204.850 70.138 M220.306 70.375 C 221.379 71.397,250.280 95.443,250.566 95.553 C 250.868 95.669,245.385 91.051,227.011 75.716 L 220.523 70.300 231.611 70.197 L 242.700 70.095 231.306 70.047 C 220.155 70.001,219.920 70.008,220.306 70.375 M207.600 70.616 C 215.830 72.467,223.658 77.273,225.124 81.376 C 225.266 81.774,225.386 81.940,225.391 81.743 C 225.440 79.770,221.327 75.955,216.614 73.601 C 213.542 72.067,207.756 70.162,206.336 70.217 C 206.096 70.226,206.665 70.406,207.600 70.616 M243.853 70.344 C 244.157 70.389,244.607 70.388,244.853 70.341 C 245.099 70.293,244.850 70.256,244.300 70.257 C 243.750 70.259,243.549 70.298,243.853 70.344 M172.500 70.729 C 175.497 71.439,179.266 72.868,181.800 74.254 C 183.929 75.419,185.943 76.728,186.036 77.008 C 186.080 77.139,186.277 77.213,186.475 77.173 C 187.310 77.004,181.119 73.448,177.667 72.115 C 175.773 71.384,172.204 70.383,171.628 70.422 C 171.448 70.434,171.840 70.572,172.500 70.729 M246.100 70.611 C 247.113 70.821,247.932 70.812,247.100 70.600 C 246.770 70.516,246.230 70.447,245.900 70.447 C 245.396 70.446,245.427 70.472,246.100 70.611 M249.326 71.272 C 258.077 73.828,264.738 79.133,262.050 81.405 C 261.300 82.038,261.300 82.038,261.944 81.717 C 265.892 79.748,256.295 72.035,248.500 70.912 C 248.060 70.849,248.432 71.011,249.326 71.272 M189.496 73.300 C 189.860 75.000,192.494 77.813,193.680 77.770 L 194.500 77.740 193.608 77.620 C 192.584 77.482,190.797 75.614,189.858 73.700 C 189.504 72.979,189.403 72.867,189.496 73.300 M152.600 73.167 C 152.600 75.387,157.658 79.293,163.410 81.515 C 165.311 82.249,170.029 83.611,170.584 83.586 C 170.758 83.578,169.798 83.275,168.451 82.913 C 160.839 80.866,154.800 77.336,153.111 73.947 C 152.830 73.383,152.600 73.032,152.600 73.167 M138.738 74.144 C 138.688 74.230,138.597 74.705,138.538 75.200 L 138.430 76.100 138.646 75.165 L 138.862 74.230 142.081 76.927 C 143.851 78.410,145.411 79.821,145.547 80.062 C 145.780 80.476,145.794 80.478,145.784 80.100 C 145.778 79.835,144.764 78.857,142.778 77.200 C 139.123 74.151,138.855 73.948,138.738 74.144 M164.850 74.406 C 162.699 75.271,167.263 78.270,170.600 78.184 C 170.875 78.177,170.245 77.993,169.200 77.774 C 163.901 76.667,162.825 74.278,167.700 74.444 C 169.020 74.489,169.830 74.463,169.500 74.387 C 168.620 74.182,165.373 74.196,164.850 74.406 M202.245 74.711 C 201.557 75.193,201.673 76.003,202.595 77.169 L 203.389 78.174 202.845 78.257 C 202.428 78.321,202.482 78.347,203.074 78.370 C 203.935 78.403,203.947 78.454,202.758 77.046 C 199.967 73.742,206.922 73.733,211.519 77.035 C 213.870 78.724,213.914 80.112,211.713 83.126 C 210.392 84.935,209.652 86.442,209.503 87.624 L 209.392 88.500 209.692 87.450 C 210.098 86.028,210.656 84.971,211.912 83.245 C 213.987 80.394,214.071 79.184,212.313 77.474 C 209.959 75.185,203.931 73.530,202.245 74.711 M170.500 74.742 C 171.456 74.972,173.613 75.933,174.967 76.733 C 176.430 77.598,176.437 77.600,178.267 77.564 L 180.100 77.529 178.200 77.412 C 176.449 77.305,176.206 77.237,175.100 76.546 C 173.797 75.732,171.030 74.586,170.456 74.623 C 170.159 74.643,170.166 74.662,170.500 74.742 M238.000 75.369 C 238.000 75.462,238.203 75.709,238.450 75.919 L 238.900 76.300 238.524 75.855 L 238.147 75.410 241.324 75.350 L 244.500 75.289 241.250 75.245 C 239.463 75.220,238.000 75.276,238.000 75.369 M137.914 77.914 C 137.726 78.863,137.610 79.677,137.658 79.724 C 137.705 79.771,137.897 79.034,138.086 78.086 C 138.274 77.137,138.390 76.323,138.342 76.276 C 138.295 76.229,138.103 76.966,137.914 77.914 M249.400 76.941 C 249.675 77.139,250.305 77.656,250.800 78.092 L 251.700 78.884 250.954 78.087 C 250.543 77.649,249.913 77.131,249.554 76.937 C 248.922 76.595,248.917 76.595,249.400 76.941 M181.950 77.347 C 182.528 77.388,183.472 77.388,184.050 77.347 C 184.628 77.307,184.155 77.274,183.000 77.274 C 181.845 77.274,181.373 77.307,181.950 77.347 M195.755 77.947 C 196.226 77.989,196.946 77.988,197.355 77.945 C 197.765 77.902,197.380 77.868,196.500 77.869 C 195.620 77.869,195.285 77.904,195.755 77.947 M199.555 78.147 C 200.026 78.189,200.746 78.188,201.155 78.145 C 201.565 78.102,201.180 78.068,200.300 78.069 C 199.420 78.069,199.085 78.104,199.555 78.147 M171.552 78.341 C 171.801 78.389,172.161 78.387,172.352 78.337 C 172.544 78.287,172.340 78.248,171.900 78.250 C 171.460 78.253,171.304 78.294,171.552 78.341 M173.050 78.538 C 173.243 78.588,173.558 78.588,173.750 78.538 C 173.942 78.488,173.785 78.446,173.400 78.446 C 173.015 78.446,172.858 78.488,173.050 78.538 M175.700 78.909 C 176.580 79.052,177.525 79.165,177.800 79.160 C 178.075 79.154,177.625 79.032,176.800 78.887 C 175.975 78.743,175.030 78.630,174.700 78.636 C 174.370 78.643,174.820 78.765,175.700 78.909 M243.081 79.750 C 243.452 80.189,243.551 80.199,246.981 80.155 L 250.500 80.110 247.010 80.050 C 244.055 79.999,243.458 79.937,243.110 79.645 C 242.701 79.301,242.701 79.301,243.081 79.750 M181.300 79.800 C 181.630 79.884,182.125 79.953,182.400 79.953 C 182.846 79.953,182.835 79.936,182.300 79.800 C 181.970 79.716,181.475 79.647,181.200 79.647 C 180.754 79.647,180.765 79.664,181.300 79.800 M137.114 81.714 C 136.926 82.663,136.810 83.477,136.858 83.524 C 136.905 83.571,137.097 82.834,137.286 81.886 C 137.474 80.937,137.590 80.123,137.542 80.076 C 137.495 80.029,137.303 80.766,137.114 81.714 M185.900 80.793 C 192.509 82.489,197.727 85.120,201.036 88.424 C 204.703 92.086,204.001 94.589,199.055 95.483 C 198.200 95.638,197.770 95.771,198.100 95.779 C 199.957 95.825,202.755 94.654,203.299 93.602 C 204.880 90.544,199.081 85.159,190.929 82.114 C 188.955 81.377,183.884 79.990,183.241 80.012 C 183.054 80.018,184.250 80.370,185.900 80.793 M145.114 82.314 C 144.926 83.263,144.810 84.077,144.858 84.124 C 144.905 84.171,145.097 83.434,145.286 82.486 C 145.474 81.537,145.590 80.723,145.542 80.676 C 145.495 80.629,145.303 81.366,145.114 82.314 M263.167 82.620 C 270.184 84.093,277.103 88.069,278.889 91.653 C 279.170 92.217,279.400 92.567,279.400 92.431 C 279.400 89.105,267.269 82.061,261.805 82.214 C 261.527 82.222,262.140 82.405,263.167 82.620 M225.221 83.100 C 225.183 83.715,224.156 85.371,222.990 86.697 C 222.009 87.814,221.215 89.171,221.204 89.750 C 221.201 89.946,222.952 90.000,229.305 90.000 L 237.411 90.000 240.755 92.797 C 242.595 94.336,244.183 95.596,244.283 95.597 C 244.512 95.601,244.875 95.921,240.909 92.621 L 237.518 89.800 229.459 89.800 C 225.026 89.800,221.400 89.752,221.400 89.694 C 221.400 89.241,222.152 88.037,223.276 86.694 C 224.719 84.969,225.485 83.617,225.339 83.055 C 225.259 82.750,225.243 82.756,225.221 83.100 M171.900 83.905 C 172.450 84.046,173.125 84.161,173.400 84.160 C 173.675 84.160,173.360 84.037,172.700 83.888 C 171.188 83.547,170.559 83.560,171.900 83.905 M136.314 85.514 C 136.126 86.463,136.010 87.277,136.058 87.324 C 136.105 87.371,136.297 86.634,136.486 85.686 C 136.674 84.737,136.790 83.923,136.742 83.876 C 136.695 83.829,136.503 84.566,136.314 85.514 M144.314 86.114 C 144.126 87.063,144.010 87.877,144.058 87.924 C 144.105 87.971,144.297 87.234,144.486 86.286 C 144.674 85.337,144.790 84.523,144.742 84.476 C 144.695 84.429,144.503 85.166,144.314 86.114 M176.650 84.738 C 176.843 84.788,177.158 84.788,177.350 84.738 C 177.543 84.688,177.385 84.646,177.000 84.646 C 176.615 84.646,176.458 84.688,176.650 84.738 M178.050 84.938 C 178.243 84.988,178.558 84.988,178.750 84.938 C 178.942 84.888,178.785 84.846,178.400 84.846 C 178.015 84.846,177.858 84.888,178.050 84.938 M180.000 85.210 C 181.207 85.425,182.153 85.406,181.100 85.189 C 180.660 85.098,180.030 85.029,179.700 85.037 C 179.250 85.047,179.325 85.090,180.000 85.210 M184.922 86.078 C 188.216 86.894,191.000 88.548,191.000 89.691 C 191.000 90.490,190.488 90.691,188.120 90.827 L 185.900 90.954 188.220 90.927 C 190.828 90.896,191.200 90.742,191.200 89.699 C 191.200 88.197,186.127 85.517,183.467 85.613 C 183.265 85.620,183.920 85.829,184.922 86.078 M173.250 86.747 C 173.773 86.788,174.628 86.788,175.150 86.747 C 175.673 86.706,175.245 86.672,174.200 86.672 C 173.155 86.672,172.728 86.706,173.250 86.747 M177.500 87.521 C 180.068 89.196,183.057 90.456,185.007 90.687 L 185.900 90.793 185.100 90.593 C 182.485 89.937,179.701 88.718,177.630 87.322 C 177.041 86.925,176.456 86.602,176.330 86.604 C 176.203 86.607,176.730 87.019,177.500 87.521 M168.650 86.947 C 169.173 86.988,170.028 86.988,170.550 86.947 C 171.072 86.906,170.645 86.872,169.600 86.872 C 168.555 86.872,168.128 86.906,168.650 86.947 M166.726 87.592 C 171.251 90.920,181.752 95.538,183.449 94.947 C 183.587 94.898,183.295 94.789,182.800 94.704 C 178.581 93.976,166.800 88.456,166.800 87.207 C 166.800 87.093,166.602 87.000,166.361 87.000 C 165.990 87.000,166.048 87.093,166.726 87.592 M135.514 89.314 C 135.326 90.263,135.210 91.077,135.258 91.124 C 135.305 91.171,135.497 90.434,135.686 89.486 C 135.874 88.537,135.990 87.723,135.942 87.676 C 135.895 87.629,135.703 88.366,135.514 89.314 M143.608 89.440 L 143.362 90.692 144.078 91.296 C 144.472 91.628,149.242 95.635,154.679 100.200 C 160.177 104.816,164.605 108.678,164.655 108.900 C 164.741 109.279,164.747 109.278,164.773 108.875 C 164.794 108.546,162.425 106.450,154.305 99.613 C 142.273 89.483,143.537 90.714,143.818 89.403 C 143.940 88.836,143.998 88.331,143.947 88.280 C 143.896 88.229,143.744 88.751,143.608 89.440 M209.501 89.565 C 209.653 90.778,210.557 92.459,211.940 94.100 L 213.119 95.500 222.010 95.503 L 230.900 95.506 222.165 95.451 L 213.430 95.396 212.365 94.216 C 211.015 92.720,210.101 91.203,209.704 89.800 C 209.410 88.761,209.399 88.748,209.501 89.565 M133.816 97.416 C 133.126 100.723,132.598 103.465,132.644 103.511 C 132.690 103.557,133.293 100.890,133.984 97.584 C 134.674 94.277,135.202 91.535,135.156 91.489 C 135.110 91.443,134.507 94.110,133.816 97.416 M279.103 93.590 C 278.932 94.129,278.206 94.601,277.030 94.939 L 276.100 95.207 276.982 95.096 C 278.311 94.929,279.833 93.766,279.352 93.285 C 279.288 93.222,279.176 93.359,279.103 93.590 M184.300 95.200 C 184.630 95.284,185.170 95.353,185.500 95.353 C 186.004 95.354,185.973 95.328,185.300 95.189 C 184.287 94.979,183.468 94.988,184.300 95.200 M274.952 95.341 C 275.201 95.389,275.561 95.387,275.752 95.337 C 275.944 95.287,275.740 95.248,275.300 95.250 C 274.860 95.253,274.704 95.294,274.952 95.341 M186.552 95.541 C 186.801 95.589,187.161 95.587,187.352 95.537 C 187.544 95.487,187.340 95.448,186.900 95.450 C 186.460 95.453,186.304 95.494,186.552 95.541 M272.650 95.543 C 272.953 95.589,273.447 95.589,273.750 95.543 C 274.053 95.497,273.805 95.460,273.200 95.460 C 272.595 95.460,272.348 95.497,272.650 95.543 M188.250 95.743 C 188.553 95.789,189.048 95.789,189.350 95.743 C 189.653 95.697,189.405 95.660,188.800 95.660 C 188.195 95.660,187.947 95.697,188.250 95.743 M257.750 95.750 C 260.308 95.781,264.493 95.781,267.050 95.750 C 269.608 95.718,267.515 95.692,262.400 95.692 C 257.285 95.692,255.193 95.718,257.750 95.750 M192.050 95.949 C 193.013 95.986,194.588 95.986,195.550 95.949 C 196.513 95.912,195.725 95.882,193.800 95.882 C 191.875 95.882,191.088 95.912,192.050 95.949 M170.727 100.550 C 170.477 101.420,169.976 104.243,170.056 104.323 C 170.106 104.372,170.318 103.532,170.529 102.456 L 170.912 100.500 220.706 100.399 L 270.500 100.299 220.663 100.249 C 173.347 100.202,170.822 100.218,170.727 100.550 M272.350 100.546 C 272.818 100.589,273.582 100.589,274.050 100.546 C 274.518 100.504,274.135 100.470,273.200 100.470 C 272.265 100.470,271.882 100.504,272.350 100.546 M275.954 100.745 C 276.313 100.789,276.853 100.789,277.154 100.743 C 277.454 100.697,277.160 100.661,276.500 100.662 C 275.840 100.663,275.594 100.700,275.954 100.745 M278.450 100.943 C 278.752 100.989,279.248 100.989,279.550 100.943 C 279.853 100.897,279.605 100.860,279.000 100.860 C 278.395 100.860,278.147 100.897,278.450 100.943 M280.550 101.141 C 280.798 101.189,281.203 101.189,281.450 101.141 C 281.697 101.093,281.495 101.054,281.000 101.054 C 280.505 101.054,280.303 101.093,280.550 101.141 M141.104 101.450 C 140.881 102.123,139.770 107.836,139.847 107.914 C 139.896 107.963,140.240 106.517,140.612 104.702 C 140.983 102.886,141.341 101.400,141.406 101.400 C 141.471 101.400,146.229 105.361,151.978 110.202 C 162.119 118.742,162.823 119.272,162.780 118.338 L 162.760 117.900 162.630 118.334 C 162.514 118.721,161.344 117.793,152.100 109.995 C 142.011 101.484,141.281 100.917,141.104 101.450 M282.350 101.341 C 282.598 101.389,283.002 101.389,283.250 101.341 C 283.498 101.293,283.295 101.254,282.800 101.254 C 282.305 101.254,282.103 101.293,282.350 101.341 M284.050 101.538 C 284.243 101.588,284.558 101.588,284.750 101.538 C 284.943 101.488,284.785 101.446,284.400 101.446 C 284.015 101.446,283.858 101.488,284.050 101.538 M285.450 101.738 C 285.643 101.788,285.957 101.788,286.150 101.738 C 286.343 101.688,286.185 101.646,285.800 101.646 C 285.415 101.646,285.257 101.688,285.450 101.738 M292.000 102.908 C 313.469 107.609,327.863 121.309,332.521 141.474 C 332.721 142.339,332.915 142.956,332.952 142.845 C 333.048 142.557,332.307 139.683,331.471 137.100 C 327.127 123.674,318.105 113.153,305.899 107.276 C 301.789 105.297,291.402 102.133,289.283 102.215 C 289.072 102.223,290.295 102.535,292.000 102.908 M132.235 104.897 C 132.104 105.546,132.066 106.136,132.149 106.206 C 136.053 109.522,138.830 111.800,138.968 111.800 C 139.155 111.800,139.892 108.425,139.738 108.272 C 139.689 108.222,139.535 108.794,139.396 109.541 C 139.257 110.288,139.088 111.053,139.021 111.240 C 138.917 111.530,134.372 107.993,132.459 106.134 C 132.282 105.962,132.270 105.669,132.416 105.022 C 132.525 104.539,132.583 104.048,132.543 103.930 C 132.504 103.812,132.365 104.248,132.235 104.897 M169.514 106.314 C 169.326 107.263,169.210 108.077,169.258 108.124 C 169.305 108.171,169.497 107.434,169.686 106.486 C 169.874 105.537,169.990 104.723,169.942 104.676 C 169.895 104.629,169.703 105.366,169.514 106.314 M168.615 110.615 C 168.371 111.838,168.210 112.877,168.257 112.924 C 168.304 112.970,168.542 112.008,168.785 110.785 C 169.029 109.562,169.190 108.523,169.143 108.476 C 169.096 108.430,168.858 109.392,168.615 110.615 M163.616 113.516 C 163.147 115.779,162.802 117.668,162.848 117.715 C 162.894 117.761,163.315 115.947,163.784 113.684 C 164.253 111.421,164.598 109.532,164.552 109.485 C 164.506 109.439,164.085 111.253,163.616 113.516 M130.934 111.349 C 130.770 111.621,130.165 114.831,130.259 114.926 C 130.310 114.976,130.465 114.406,130.604 113.659 C 130.743 112.912,130.915 112.141,130.985 111.946 C 131.088 111.659,156.269 132.456,158.783 134.905 C 159.032 135.148,157.270 144.797,156.910 145.157 C 156.868 145.198,150.594 139.977,142.967 133.554 C 127.687 120.685,128.946 121.947,129.250 119.800 L 129.378 118.900 129.108 119.900 C 128.562 121.925,127.397 120.750,142.778 133.691 C 150.466 140.160,156.833 145.446,156.928 145.438 C 157.131 145.421,159.210 135.893,159.145 135.277 C 159.114 134.987,155.423 131.760,147.500 125.094 C 141.120 119.727,134.803 114.405,133.462 113.267 C 132.122 112.129,130.984 111.266,130.934 111.349 M167.714 114.914 C 167.526 115.863,167.410 116.677,167.458 116.724 C 167.505 116.771,167.697 116.034,167.886 115.086 C 168.074 114.137,168.190 113.323,168.142 113.276 C 168.095 113.229,167.903 113.966,167.714 114.914 M129.714 116.914 C 129.526 117.863,129.410 118.677,129.458 118.724 C 129.505 118.771,129.697 118.034,129.886 117.086 C 130.074 116.137,130.190 115.323,130.142 115.276 C 130.095 115.229,129.903 115.966,129.714 116.914 M166.815 119.215 C 166.571 120.438,166.410 121.477,166.457 121.524 C 166.504 121.570,166.742 120.608,166.985 119.385 C 167.229 118.162,167.390 117.123,167.343 117.076 C 167.296 117.030,167.058 117.992,166.815 119.215 M165.914 123.514 C 165.726 124.463,165.610 125.277,165.658 125.324 C 165.705 125.371,165.897 124.634,166.086 123.686 C 166.274 122.737,166.390 121.923,166.342 121.876 C 166.295 121.829,166.103 122.566,165.914 123.514 M164.616 129.716 C 164.147 131.979,163.802 133.868,163.848 133.915 C 163.894 133.961,164.315 132.147,164.784 129.884 C 165.253 127.621,165.598 125.732,165.552 125.685 C 165.506 125.639,165.085 127.453,164.616 129.716 M127.531 127.335 C 127.278 128.215,126.775 131.042,126.857 131.124 C 126.907 131.174,127.107 130.379,127.302 129.357 C 127.497 128.336,127.683 127.468,127.715 127.430 C 127.748 127.391,129.242 128.600,131.037 130.116 C 134.565 133.097,134.422 132.881,134.150 134.800 L 134.022 135.700 134.292 134.700 C 134.776 132.905,134.870 133.054,131.450 130.181 C 129.718 128.726,128.151 127.408,127.968 127.253 C 127.678 127.006,127.623 127.017,127.531 127.335 M126.314 133.114 C 126.126 134.063,126.010 134.877,126.058 134.924 C 126.105 134.971,126.297 134.234,126.486 133.286 C 126.674 132.337,126.790 131.523,126.742 131.476 C 126.695 131.429,126.503 132.166,126.314 133.114 M163.314 135.914 C 163.126 136.863,163.010 137.677,163.058 137.724 C 163.105 137.771,163.297 137.034,163.486 136.086 C 163.674 135.137,163.790 134.323,163.742 134.276 C 163.695 134.229,163.503 134.966,163.314 135.914 M125.514 136.914 C 125.326 137.863,125.210 138.677,125.258 138.724 C 125.305 138.771,125.497 138.034,125.686 137.086 C 125.874 136.137,125.990 135.323,125.942 135.276 C 125.895 135.229,125.703 135.966,125.514 136.914 M133.514 137.514 C 133.326 138.463,133.210 139.277,133.258 139.324 C 133.305 139.371,133.497 138.634,133.686 137.686 C 133.874 136.737,133.990 135.923,133.942 135.876 C 133.895 135.829,133.703 136.566,133.514 137.514 M220.050 137.950 C 225.632 137.979,234.767 137.979,240.350 137.950 C 245.933 137.920,241.365 137.896,230.200 137.896 C 219.035 137.896,214.467 137.920,220.050 137.950 M162.415 140.215 C 162.171 141.438,162.010 142.477,162.057 142.524 C 162.104 142.570,162.342 141.608,162.585 140.385 C 162.829 139.162,162.990 138.123,162.943 138.076 C 162.896 138.030,162.658 138.992,162.415 140.215 M255.150 138.145 C 255.507 138.189,256.093 138.189,256.450 138.145 C 256.808 138.100,256.515 138.064,255.800 138.064 C 255.085 138.064,254.793 138.100,255.150 138.145 M259.350 138.341 C 259.598 138.389,260.002 138.389,260.250 138.341 C 260.498 138.293,260.295 138.254,259.800 138.254 C 259.305 138.254,259.103 138.293,259.350 138.341 M262.250 138.538 C 262.443 138.588,262.757 138.588,262.950 138.538 C 263.143 138.488,262.985 138.446,262.600 138.446 C 262.215 138.446,262.058 138.488,262.250 138.538 M124.714 140.714 C 124.526 141.663,124.410 142.477,124.458 142.524 C 124.505 142.571,124.697 141.834,124.886 140.886 C 125.074 139.937,125.190 139.123,125.142 139.076 C 125.095 139.029,124.903 139.766,124.714 140.714 M132.714 141.314 C 132.526 142.263,132.410 143.077,132.458 143.124 C 132.505 143.171,132.697 142.434,132.886 141.486 C 133.074 140.537,133.190 139.723,133.142 139.676 C 133.095 139.629,132.903 140.366,132.714 141.314 M123.914 144.514 C 123.726 145.463,123.610 146.277,123.658 146.324 C 123.705 146.371,123.897 145.634,124.086 144.686 C 124.274 143.737,124.390 142.923,124.342 142.876 C 124.295 142.829,124.103 143.566,123.914 144.514 M161.514 144.514 C 161.326 145.463,161.210 146.277,161.258 146.324 C 161.305 146.371,161.497 145.634,161.686 144.686 C 161.874 143.737,161.990 142.923,161.942 142.876 C 161.895 142.829,161.703 143.566,161.514 144.514 M132.817 144.268 C 133.101 144.519,137.849 148.525,143.367 153.172 C 148.885 157.819,153.400 161.745,153.400 161.897 C 153.400 162.215,151.418 171.649,151.333 171.734 C 151.302 171.764,146.618 167.869,140.924 163.076 C 135.229 158.284,130.534 154.399,130.491 154.443 C 130.447 154.486,135.143 158.505,140.927 163.373 C 146.710 168.241,151.462 172.196,151.486 172.162 C 151.743 171.798,153.636 161.707,153.488 161.491 C 153.232 161.119,132.620 143.798,132.442 143.806 C 132.364 143.810,132.533 144.018,132.817 144.268 M333.236 144.500 C 333.230 144.720,333.344 145.530,333.490 146.300 C 333.636 147.070,333.761 147.475,333.768 147.200 C 333.775 146.925,333.661 146.115,333.515 145.400 C 333.368 144.685,333.242 144.280,333.236 144.500 M122.216 152.616 C 121.526 155.923,120.998 158.665,121.044 158.711 C 121.090 158.757,121.693 156.090,122.384 152.784 C 123.074 149.477,123.602 146.735,123.556 146.689 C 123.510 146.643,122.907 149.310,122.216 152.616 M160.615 148.815 C 160.371 150.038,160.210 151.077,160.257 151.124 C 160.304 151.170,160.542 150.208,160.785 148.985 C 161.029 147.762,161.190 146.723,161.143 146.676 C 161.096 146.630,160.858 147.592,160.615 148.815 M333.850 148.500 C 333.853 148.940,333.894 149.096,333.941 148.848 C 333.989 148.599,333.987 148.239,333.937 148.048 C 333.887 147.856,333.848 148.060,333.850 148.500 M334.057 150.300 C 334.059 150.850,334.098 151.051,334.144 150.747 C 334.189 150.443,334.188 149.993,334.141 149.747 C 334.093 149.501,334.056 149.750,334.057 150.300 M159.714 153.114 C 159.526 154.063,159.410 154.877,159.458 154.924 C 159.505 154.971,159.697 154.234,159.886 153.286 C 160.074 152.337,160.190 151.523,160.142 151.476 C 160.095 151.429,159.903 152.166,159.714 153.114 M334.266 152.900 C 334.267 153.670,334.303 153.960,334.346 153.546 C 334.389 153.131,334.389 152.501,334.344 152.146 C 334.300 151.790,334.265 152.130,334.266 152.900 M129.828 155.130 C 129.467 156.528,128.965 159.232,129.050 159.317 C 129.146 159.413,130.182 154.536,130.088 154.430 C 130.054 154.391,129.937 154.706,129.828 155.130 M158.815 157.415 C 158.571 158.638,158.410 159.677,158.457 159.724 C 158.504 159.770,158.742 158.808,158.985 157.585 C 159.229 156.362,159.390 155.323,159.343 155.276 C 159.296 155.230,159.058 156.192,158.815 157.415 M334.478 157.800 C 334.478 159.285,334.510 159.893,334.548 159.150 C 334.587 158.408,334.587 157.192,334.548 156.450 C 334.510 155.708,334.478 156.315,334.478 157.800 M121.007 159.272 C 122.044 160.234,127.838 165.028,127.895 164.971 C 127.933 164.932,128.016 164.540,128.080 164.100 C 128.195 163.304,128.194 163.303,127.988 163.966 C 127.804 164.556,127.741 164.602,127.441 164.366 C 127.254 164.220,125.736 162.953,124.067 161.550 C 122.398 160.148,120.961 159.000,120.873 159.000 C 120.786 159.000,120.846 159.122,121.007 159.272 M287.276 161.700 C 287.277 163.020,287.309 163.534,287.348 162.842 C 287.387 162.150,287.387 161.070,287.348 160.442 C 287.308 159.814,287.276 160.380,287.276 161.700 M128.514 161.314 C 128.326 162.263,128.210 163.077,128.258 163.124 C 128.305 163.171,128.497 162.434,128.686 161.486 C 128.874 160.537,128.990 159.723,128.942 159.676 C 128.895 159.629,128.703 160.366,128.514 161.314 M157.914 161.714 C 157.726 162.663,157.610 163.477,157.658 163.524 C 157.705 163.571,157.897 162.834,158.086 161.886 C 158.274 160.937,158.390 160.123,158.342 160.076 C 158.295 160.029,158.103 160.766,157.914 161.714 M334.267 162.800 C 334.267 163.625,334.303 163.963,334.346 163.550 C 334.389 163.138,334.389 162.463,334.346 162.050 C 334.303 161.638,334.267 161.975,334.267 162.800 M156.616 167.916 C 156.147 170.179,155.802 172.068,155.848 172.115 C 155.894 172.161,156.315 170.347,156.784 168.084 C 157.253 165.821,157.598 163.932,157.552 163.885 C 157.506 163.839,157.085 165.653,156.616 167.916 M334.057 165.500 C 334.059 166.050,334.098 166.251,334.144 165.947 C 334.189 165.643,334.188 165.193,334.141 164.947 C 334.093 164.701,334.056 164.950,334.057 165.500 M121.492 167.176 C 119.923 167.888,117.746 171.788,117.811 173.771 C 117.816 173.952,118.042 173.352,118.313 172.438 C 120.166 166.169,123.718 165.325,128.990 169.900 C 132.281 172.756,134.519 176.473,135.428 180.593 C 135.709 181.867,135.777 182.033,135.695 181.248 C 134.907 173.669,126.197 165.039,121.492 167.176 M333.850 167.500 C 333.853 167.940,333.894 168.096,333.941 167.848 C 333.989 167.599,333.987 167.239,333.937 167.048 C 333.887 166.856,333.848 167.060,333.850 167.500 M333.646 169.200 C 333.646 169.585,333.688 169.743,333.738 169.550 C 333.788 169.358,333.788 169.043,333.738 168.850 C 333.688 168.658,333.646 168.815,333.646 169.200 M333.446 170.600 C 333.446 170.985,333.488 171.143,333.538 170.950 C 333.588 170.758,333.588 170.442,333.538 170.250 C 333.488 170.058,333.446 170.215,333.446 170.600 M154.816 176.516 C 154.347 178.779,154.002 180.668,154.048 180.715 C 154.094 180.761,154.515 178.947,154.984 176.684 C 155.453 174.421,155.798 172.532,155.752 172.485 C 155.706 172.439,155.285 174.253,154.816 176.516 M332.814 174.015 C 332.010 178.569,330.162 184.868,328.066 190.200 C 318.386 214.829,302.384 229.808,278.600 236.503 C 276.895 236.983,275.645 237.381,275.822 237.388 C 275.999 237.395,277.862 236.907,279.963 236.305 C 304.075 229.395,320.863 212.433,329.866 185.887 C 331.359 181.483,333.376 173.428,333.153 172.758 C 333.111 172.633,332.959 173.198,332.814 174.015 M116.816 178.316 C 116.347 180.579,116.002 182.468,116.048 182.515 C 116.094 182.561,116.515 180.747,116.984 178.484 C 117.453 176.221,117.798 174.332,117.752 174.285 C 117.706 174.239,117.285 176.053,116.816 178.316 M124.400 179.142 C 123.771 179.373,123.404 179.887,123.021 181.073 C 122.440 182.870,121.929 185.631,122.149 185.777 C 122.252 185.845,123.643 187.003,125.241 188.350 C 126.839 189.697,128.239 190.800,128.352 190.800 C 129.040 190.800,129.642 184.935,129.133 183.184 C 128.586 181.301,126.800 179.178,125.789 179.209 C 125.630 179.214,125.815 179.386,126.200 179.591 C 128.974 181.070,130.192 187.008,128.409 190.364 C 128.293 190.581,124.648 187.738,122.446 185.712 C 122.242 185.524,122.272 185.096,122.596 183.519 C 123.219 180.493,123.720 179.569,124.937 179.203 C 125.322 179.088,125.373 179.034,125.100 179.033 C 124.880 179.032,124.565 179.081,124.400 179.142 M153.514 182.714 C 153.326 183.663,153.210 184.477,153.258 184.524 C 153.305 184.571,153.497 183.834,153.686 182.886 C 153.874 181.937,153.990 181.123,153.942 181.076 C 153.895 181.029,153.703 181.766,153.514 182.714 M135.876 184.600 C 135.876 185.865,135.908 186.383,135.948 185.750 C 135.987 185.118,135.987 184.083,135.948 183.450 C 135.908 182.817,135.876 183.335,135.876 184.600 M115.514 184.514 C 115.326 185.463,115.210 186.277,115.258 186.324 C 115.305 186.371,115.497 185.634,115.686 184.686 C 115.874 183.737,115.990 182.923,115.942 182.876 C 115.895 182.829,115.703 183.566,115.514 184.514 M152.615 187.015 C 152.371 188.238,152.210 189.277,152.257 189.324 C 152.304 189.370,152.542 188.408,152.785 187.185 C 153.029 185.962,153.190 184.923,153.143 184.876 C 153.096 184.830,152.858 185.792,152.615 187.015 M114.714 188.314 C 114.526 189.263,114.410 190.077,114.458 190.124 C 114.505 190.171,114.697 189.434,114.886 188.486 C 115.074 187.537,115.190 186.723,115.142 186.676 C 115.095 186.629,114.903 187.366,114.714 188.314 M135.523 188.123 C 135.450 188.746,135.430 189.296,135.478 189.345 C 135.527 189.394,135.630 188.927,135.708 188.308 C 135.785 187.688,135.805 187.138,135.752 187.086 C 135.700 187.033,135.596 187.500,135.523 188.123 M276.687 188.450 L 276.100 189.100 276.750 188.513 C 277.356 187.965,277.492 187.800,277.337 187.800 C 277.303 187.800,277.010 188.093,276.687 188.450 M134.729 192.221 C 134.425 193.694,134.132 195.085,134.076 195.312 C 133.993 195.652,134.895 196.496,139.188 200.097 C 142.055 202.503,144.400 204.580,144.400 204.714 C 144.400 204.848,144.257 205.649,144.082 206.494 C 143.907 207.339,143.807 208.074,143.859 208.126 C 143.911 208.178,144.115 207.362,144.313 206.313 C 144.511 205.264,144.634 204.374,144.586 204.336 C 143.179 203.192,134.390 195.746,134.327 195.644 C 134.277 195.563,134.501 194.247,134.825 192.718 C 135.148 191.189,135.383 189.849,135.347 189.740 C 135.310 189.630,135.032 190.747,134.729 192.221 M151.714 191.314 C 151.526 192.263,151.410 193.077,151.458 193.124 C 151.505 193.171,151.697 192.434,151.886 191.486 C 152.074 190.537,152.190 189.723,152.142 189.676 C 152.095 189.629,151.903 190.366,151.714 191.314 M114.224 190.841 C 114.202 191.329,141.818 215.000,142.409 215.000 C 142.540 215.000,142.642 214.532,142.889 212.800 C 142.945 212.415,142.834 212.695,142.645 213.422 L 142.300 214.743 128.400 203.045 C 118.266 194.515,114.466 191.204,114.374 190.823 L 114.247 190.300 114.224 190.841 M150.815 195.615 C 150.571 196.838,150.410 197.877,150.457 197.924 C 150.504 197.970,150.742 197.008,150.985 195.785 C 151.229 194.562,151.390 193.523,151.343 193.476 C 151.296 193.430,151.058 194.392,150.815 195.615 M149.914 199.914 C 149.726 200.863,149.610 201.677,149.658 201.724 C 149.705 201.771,149.897 201.034,150.086 200.086 C 150.274 199.137,150.390 198.323,150.342 198.276 C 150.295 198.229,150.103 198.966,149.914 199.914 M149.015 204.215 C 148.771 205.438,148.610 206.477,148.657 206.524 C 148.704 206.570,148.942 205.608,149.185 204.385 C 149.429 203.162,149.590 202.123,149.543 202.076 C 149.496 202.030,149.258 202.992,149.015 204.215 M239.650 202.938 C 239.843 202.988,240.157 202.988,240.350 202.938 C 240.543 202.888,240.385 202.846,240.000 202.846 C 239.615 202.846,239.457 202.888,239.650 202.938 M237.050 203.138 C 237.243 203.188,237.558 203.188,237.750 203.138 C 237.943 203.088,237.785 203.046,237.400 203.046 C 237.015 203.046,236.857 203.088,237.050 203.138 M233.950 203.341 C 234.197 203.389,234.603 203.389,234.850 203.341 C 235.097 203.293,234.895 203.254,234.400 203.254 C 233.905 203.254,233.703 203.293,233.950 203.341 M229.954 203.545 C 230.313 203.589,230.853 203.589,231.154 203.543 C 231.454 203.497,231.160 203.461,230.500 203.462 C 229.840 203.463,229.594 203.500,229.954 203.545 M224.350 203.746 C 224.818 203.789,225.582 203.789,226.050 203.746 C 226.518 203.704,226.135 203.670,225.200 203.670 C 224.265 203.670,223.882 203.704,224.350 203.746 M201.736 203.950 C 204.835 203.981,209.965 203.981,213.136 203.950 C 216.306 203.919,213.770 203.894,207.500 203.894 C 201.230 203.894,198.636 203.919,201.736 203.950 M115.265 204.288 C 112.017 205.303,108.299 211.645,108.414 215.971 C 108.422 216.262,108.594 215.715,108.796 214.755 C 111.359 202.602,118.147 200.919,128.100 209.970 C 133.092 214.510,136.486 220.160,137.909 226.300 C 138.163 227.400,138.378 228.109,138.386 227.876 C 138.412 227.094,137.434 223.630,136.601 221.554 C 132.530 211.404,121.375 202.377,115.265 204.288 M148.114 208.514 C 147.926 209.463,147.810 210.277,147.858 210.324 C 147.905 210.371,148.097 209.634,148.286 208.686 C 148.474 207.737,148.590 206.923,148.542 206.876 C 148.495 206.829,148.303 207.566,148.114 208.514 M143.314 210.114 C 143.126 211.063,143.010 211.877,143.058 211.924 C 143.105 211.971,143.297 211.234,143.486 210.286 C 143.674 209.337,143.790 208.523,143.742 208.476 C 143.695 208.429,143.503 209.166,143.314 210.114 M146.816 214.716 C 146.347 216.979,146.002 218.868,146.048 218.915 C 146.094 218.961,146.515 217.147,146.984 214.884 C 147.453 212.621,147.798 210.732,147.752 210.685 C 147.706 210.639,147.285 212.453,146.816 214.716 M117.500 216.221 C 116.306 216.915,115.176 218.810,115.213 220.058 C 115.220 220.301,115.359 220.005,115.521 219.400 C 116.767 214.748,120.461 215.196,126.168 220.694 C 129.070 223.489,130.446 225.498,131.238 228.100 C 131.517 229.016,131.576 229.111,131.486 228.500 C 130.686 223.037,120.764 214.326,117.500 216.221 M108.254 217.400 C 108.254 217.895,108.293 218.097,108.341 217.850 C 108.389 217.603,108.389 217.197,108.341 216.950 C 108.293 216.703,108.254 216.905,108.254 217.400 M108.073 220.500 C 108.074 221.600,108.107 222.024,108.148 221.443 C 108.188 220.862,108.188 219.962,108.147 219.443 C 108.106 218.924,108.073 219.400,108.073 220.500 M145.514 220.914 C 145.326 221.863,145.210 222.677,145.258 222.724 C 145.305 222.771,145.497 222.034,145.686 221.086 C 145.874 220.137,145.990 219.323,145.942 219.276 C 145.895 219.229,145.703 219.966,145.514 220.914 M115.066 221.900 C 115.067 222.670,115.103 222.960,115.146 222.546 C 115.189 222.131,115.189 221.501,115.144 221.146 C 115.100 220.790,115.065 221.130,115.066 221.900 M108.250 223.700 C 108.253 224.140,108.294 224.296,108.341 224.048 C 108.389 223.799,108.387 223.439,108.337 223.248 C 108.287 223.056,108.248 223.260,108.250 223.700 M144.615 225.215 C 144.371 226.438,144.210 227.477,144.257 227.524 C 144.304 227.570,144.542 226.608,144.785 225.385 C 145.029 224.162,145.190 223.123,145.143 223.076 C 145.096 223.030,144.858 223.992,144.615 225.215 M115.211 223.740 C 115.113 227.660,123.601 237.114,127.100 236.981 C 127.425 236.968,127.407 236.937,127.000 236.813 C 122.600 235.466,116.800 229.319,115.596 224.728 C 115.390 223.942,115.217 223.498,115.211 223.740 M108.726 226.600 C 109.248 230.493,112.163 236.266,115.700 240.410 C 119.220 244.536,125.426 248.830,127.800 248.783 C 128.091 248.778,127.853 248.653,127.227 248.485 C 119.972 246.534,111.587 236.839,109.091 227.517 C 108.824 226.517,108.659 226.105,108.726 226.600 M143.714 229.514 C 143.526 230.463,143.410 231.277,143.458 231.324 C 143.505 231.371,143.697 230.634,143.886 229.686 C 144.074 228.737,144.190 227.923,144.142 227.876 C 144.095 227.829,143.903 228.566,143.714 229.514 M138.450 229.100 C 138.453 229.540,138.494 229.696,138.541 229.448 C 138.589 229.199,138.587 228.839,138.537 228.648 C 138.487 228.456,138.448 228.660,138.450 229.100 M131.639 230.908 C 131.547 234.708,130.197 236.976,128.017 236.996 C 127.751 236.998,127.587 237.054,127.653 237.120 C 127.905 237.372,129.440 236.940,130.016 236.456 C 131.223 235.441,131.887 233.240,131.752 230.700 L 131.678 229.300 131.639 230.908 M138.675 232.300 C 138.675 233.510,138.708 233.979,138.748 233.343 C 138.788 232.706,138.787 231.716,138.747 231.143 C 138.707 230.569,138.674 231.090,138.675 232.300 M142.815 233.815 C 142.571 235.038,142.410 236.077,142.457 236.124 C 142.504 236.170,142.742 235.208,142.985 233.985 C 143.229 232.762,143.390 231.723,143.343 231.676 C 143.296 231.630,143.058 232.592,142.815 233.815 M138.343 236.051 C 137.474 243.666,134.376 248.274,129.767 248.808 L 128.300 248.978 129.833 248.906 C 133.332 248.741,135.625 246.553,137.176 241.900 C 137.896 239.741,138.645 236.176,138.559 235.318 C 138.520 234.931,138.439 235.206,138.343 236.051 M141.914 238.114 C 141.726 239.063,141.610 239.877,141.658 239.924 C 141.705 239.971,141.897 239.234,142.086 238.286 C 142.274 237.337,142.390 236.523,142.342 236.476 C 142.295 236.429,142.103 237.166,141.914 238.114 M273.800 237.700 C 273.305 237.843,273.035 237.968,273.200 237.977 C 273.365 237.985,273.950 237.867,274.500 237.714 C 275.050 237.561,275.320 237.437,275.100 237.438 C 274.880 237.438,274.295 237.557,273.800 237.700 M270.000 238.500 C 268.845 238.752,268.045 238.967,268.222 238.979 C 268.586 239.003,272.655 238.200,272.783 238.079 C 272.954 237.917,272.040 238.056,270.000 238.500 M266.300 239.200 C 265.765 239.336,265.754 239.353,266.200 239.353 C 266.475 239.353,266.970 239.284,267.300 239.200 C 267.835 239.064,267.846 239.047,267.400 239.047 C 267.125 239.047,266.630 239.116,266.300 239.200 M262.600 239.800 C 262.069 239.912,262.021 239.951,262.400 239.962 C 262.675 239.970,263.260 239.902,263.700 239.811 C 264.367 239.674,264.400 239.647,263.900 239.649 C 263.570 239.651,262.985 239.719,262.600 239.800 M260.850 240.138 C 261.043 240.188,261.358 240.188,261.550 240.138 C 261.743 240.088,261.585 240.046,261.200 240.046 C 260.815 240.046,260.657 240.088,260.850 240.138 M141.015 242.415 C 140.771 243.638,140.610 244.677,140.657 244.724 C 140.704 244.770,140.942 243.808,141.185 242.585 C 141.429 241.362,141.590 240.323,141.543 240.276 C 141.496 240.230,141.258 241.192,141.015 242.415 M259.450 240.338 C 259.643 240.388,259.957 240.388,260.150 240.338 C 260.343 240.288,260.185 240.246,259.800 240.246 C 259.415 240.246,259.257 240.288,259.450 240.338 M257.750 240.541 C 257.998 240.589,258.403 240.589,258.650 240.541 C 258.897 240.493,258.695 240.454,258.200 240.454 C 257.705 240.454,257.502 240.493,257.750 240.541 M107.250 240.738 C 107.442 240.788,107.758 240.788,107.950 240.738 C 108.142 240.688,107.985 240.646,107.600 240.646 C 107.215 240.646,107.058 240.688,107.250 240.738 M255.853 240.744 C 256.157 240.789,256.607 240.788,256.853 240.741 C 257.099 240.693,256.850 240.656,256.300 240.657 C 255.750 240.659,255.549 240.698,255.853 240.744 M105.588 241.252 C 104.133 242.233,102.553 245.530,102.116 248.500 C 102.051 248.940,102.215 248.535,102.482 247.600 C 103.589 243.711,104.519 242.027,105.981 241.261 C 106.466 241.008,106.727 240.800,106.561 240.800 C 106.395 240.800,105.957 241.004,105.588 241.252 M109.434 241.276 C 113.024 242.753,116.424 246.987,117.897 251.817 C 118.180 252.743,118.357 253.149,118.291 252.720 C 117.532 247.790,111.828 240.758,108.626 240.805 C 108.447 240.807,108.810 241.019,109.434 241.276 M253.450 240.943 C 253.753 240.989,254.248 240.989,254.550 240.943 C 254.853 240.897,254.605 240.860,254.000 240.860 C 253.395 240.860,253.148 240.897,253.450 240.943 M250.550 241.145 C 250.907 241.189,251.493 241.189,251.850 241.145 C 252.207 241.100,251.915 241.064,251.200 241.064 C 250.485 241.064,250.193 241.100,250.550 241.145 M246.750 241.346 C 247.218 241.389,247.982 241.389,248.450 241.346 C 248.918 241.304,248.535 241.270,247.600 241.270 C 246.665 241.270,246.282 241.304,246.750 241.346 M241.558 241.548 C 242.250 241.587,243.330 241.587,243.958 241.548 C 244.586 241.508,244.020 241.476,242.700 241.476 C 241.380 241.477,240.866 241.509,241.558 241.548 M232.661 241.749 C 233.849 241.785,235.739 241.785,236.861 241.749 C 237.982 241.713,237.010 241.684,234.700 241.685 C 232.390 241.685,231.472 241.714,232.661 241.749 M187.997 242.916 C 187.869 243.530,187.811 244.078,187.868 244.134 C 187.924 244.191,188.030 243.838,188.103 243.351 C 188.176 242.865,188.300 242.362,188.379 242.234 C 188.486 242.061,193.272 241.989,207.111 241.950 L 225.700 241.898 206.964 241.849 L 188.228 241.800 187.997 242.916 M187.314 246.114 C 187.126 247.063,187.010 247.877,187.058 247.924 C 187.105 247.971,187.297 247.234,187.486 246.286 C 187.674 245.337,187.790 244.523,187.742 244.476 C 187.695 244.429,187.503 245.166,187.314 246.114 M140.114 246.714 C 139.926 247.663,139.810 248.477,139.858 248.524 C 139.905 248.571,140.097 247.834,140.286 246.886 C 140.474 245.937,140.590 245.123,140.542 245.076 C 140.495 245.029,140.303 245.766,140.114 246.714 M186.415 250.415 C 186.171 251.638,186.010 252.677,186.057 252.724 C 186.104 252.770,186.342 251.808,186.585 250.585 C 186.829 249.362,186.990 248.323,186.943 248.276 C 186.896 248.230,186.658 249.192,186.415 250.415 M138.816 252.916 C 138.347 255.179,138.002 257.068,138.048 257.115 C 138.094 257.161,138.515 255.347,138.984 253.084 C 139.453 250.821,139.798 248.932,139.752 248.885 C 139.706 248.839,139.285 250.653,138.816 252.916 M101.514 251.114 C 101.326 252.063,101.210 252.877,101.258 252.924 C 101.305 252.971,101.497 252.234,101.686 251.286 C 101.874 250.337,101.990 249.523,101.942 249.476 C 101.895 249.429,101.703 250.166,101.514 251.114 M185.514 254.714 C 185.326 255.663,185.210 256.477,185.258 256.524 C 185.305 256.571,185.497 255.834,185.686 254.886 C 185.874 253.937,185.990 253.123,185.942 253.076 C 185.895 253.029,185.703 253.766,185.514 254.714 M100.714 254.914 C 100.526 255.863,100.410 256.677,100.458 256.724 C 100.505 256.771,100.697 256.034,100.886 255.086 C 101.074 254.137,101.190 253.323,101.142 253.276 C 101.095 253.229,100.903 253.966,100.714 254.914 M108.133 253.683 C 107.552 254.310,106.136 259.403,106.454 259.721 C 106.503 259.770,106.695 259.045,106.881 258.110 C 107.570 254.640,108.161 253.400,109.124 253.400 C 110.460 253.400,112.120 255.101,112.831 257.199 C 112.967 257.602,112.980 257.564,112.896 257.000 C 112.525 254.498,109.397 252.320,108.133 253.683 M118.446 254.200 C 118.446 254.585,118.488 254.743,118.538 254.550 C 118.588 254.357,118.588 254.043,118.538 253.850 C 118.488 253.657,118.446 253.815,118.446 254.200 M118.666 256.300 C 118.667 257.070,118.703 257.360,118.746 256.946 C 118.789 256.531,118.789 255.901,118.744 255.546 C 118.700 255.190,118.665 255.530,118.666 256.300 M124.000 255.707 C 125.694 256.057,126.461 256.040,124.900 255.688 C 124.240 255.539,123.475 255.422,123.200 255.428 C 122.925 255.434,123.285 255.560,124.000 255.707 M120.800 255.824 C 120.233 256.048,119.000 257.178,119.000 257.473 C 119.000 257.579,119.339 257.300,119.753 256.851 C 120.299 256.259,120.724 255.999,121.303 255.902 C 122.420 255.713,122.598 255.632,121.900 255.628 C 121.570 255.627,121.075 255.715,120.800 255.824 M128.300 256.511 C 129.510 256.770,130.680 256.976,130.900 256.970 C 131.120 256.964,130.310 256.748,129.100 256.489 C 127.890 256.230,126.720 256.024,126.500 256.030 C 126.280 256.036,127.090 256.252,128.300 256.511 M184.615 259.015 C 184.371 260.238,184.210 261.277,184.257 261.324 C 184.304 261.370,184.542 260.408,184.785 259.185 C 185.029 257.962,185.190 256.923,185.143 256.876 C 185.096 256.830,184.858 257.792,184.615 259.015 M99.416 261.116 C 98.947 263.379,98.602 265.268,98.648 265.315 C 98.694 265.361,99.115 263.547,99.584 261.284 C 100.053 259.021,100.398 257.132,100.352 257.085 C 100.306 257.039,99.885 258.853,99.416 261.116 M132.859 257.344 C 133.269 257.406,133.392 257.518,133.320 257.764 C 133.266 257.949,133.174 258.460,133.117 258.900 C 133.037 259.519,133.077 259.454,133.294 258.610 C 133.620 257.346,133.568 257.189,132.838 257.230 L 132.300 257.260 132.859 257.344 M137.016 261.516 C 136.547 263.779,136.202 265.668,136.248 265.715 C 136.294 265.761,136.715 263.947,137.184 261.684 C 137.653 259.421,137.998 257.532,137.952 257.485 C 137.906 257.439,137.485 259.253,137.016 261.516 M113.054 258.600 C 113.054 259.095,113.093 259.298,113.141 259.050 C 113.189 258.803,113.189 258.397,113.141 258.150 C 113.093 257.903,113.054 258.105,113.054 258.600 M132.514 261.514 C 132.326 262.463,132.210 263.277,132.258 263.324 C 132.305 263.371,132.497 262.634,132.686 261.686 C 132.874 260.737,132.990 259.923,132.942 259.876 C 132.895 259.829,132.703 260.566,132.514 261.514 M106.125 260.625 C 106.056 260.969,106.000 261.316,106.000 261.398 C 106.000 261.609,111.509 266.200,111.762 266.200 C 111.878 266.200,112.022 266.043,112.082 265.850 C 112.380 264.897,112.996 261.480,112.970 260.928 L 112.940 260.300 112.862 260.900 C 112.687 262.244,111.953 265.711,111.812 265.860 C 111.402 266.293,106.298 261.494,106.359 260.733 C 106.430 259.836,106.295 259.774,106.125 260.625 M183.714 263.314 C 183.526 264.263,183.410 265.077,183.458 265.124 C 183.505 265.171,183.697 264.434,183.886 263.486 C 184.074 262.537,184.190 261.723,184.142 261.676 C 184.095 261.629,183.903 262.366,183.714 263.314 M131.714 265.314 C 131.526 266.263,131.410 267.077,131.458 267.124 C 131.505 267.171,131.697 266.434,131.886 265.486 C 132.074 264.537,132.190 263.723,132.142 263.676 C 132.095 263.629,131.903 264.366,131.714 265.314 M182.815 267.615 C 182.571 268.838,182.410 269.877,182.457 269.924 C 182.504 269.970,182.742 269.008,182.985 267.785 C 183.229 266.562,183.390 265.523,183.343 265.476 C 183.296 265.430,183.058 266.392,182.815 267.615 M98.296 266.422 C 98.198 267.005,98.236 267.315,98.429 267.491 C 99.664 268.622,126.441 291.024,126.492 290.970 C 126.624 290.829,127.230 287.564,127.141 287.474 C 127.090 287.424,126.936 287.994,126.798 288.741 C 126.661 289.488,126.487 290.216,126.411 290.359 C 126.318 290.535,121.812 286.862,112.325 278.877 L 98.376 267.137 98.505 266.368 C 98.577 265.946,98.590 265.600,98.535 265.600 C 98.480 265.600,98.373 265.970,98.296 266.422 M135.714 267.714 C 135.526 268.663,135.410 269.477,135.458 269.524 C 135.505 269.571,135.697 268.834,135.886 267.886 C 136.074 266.937,136.190 266.123,136.142 266.076 C 136.095 266.029,135.903 266.766,135.714 267.714 M118.600 267.654 C 118.016 267.943,117.191 269.460,117.220 270.192 C 117.235 270.576,117.284 270.512,117.421 269.929 C 117.870 268.020,118.646 267.491,120.748 267.664 C 121.805 267.751,121.925 267.737,121.300 267.599 C 120.158 267.348,119.178 267.367,118.600 267.654 M131.105 268.200 C 131.020 268.695,130.850 269.174,130.726 269.265 C 130.576 269.375,130.599 269.403,130.794 269.351 C 131.084 269.272,131.479 267.928,131.334 267.513 C 131.293 267.396,131.190 267.705,131.105 268.200 M134.815 272.015 C 134.571 273.238,134.410 274.277,134.457 274.324 C 134.504 274.370,134.742 273.408,134.985 272.185 C 135.229 270.962,135.390 269.923,135.343 269.876 C 135.296 269.830,135.058 270.792,134.815 272.015 M181.914 271.914 C 181.726 272.863,181.610 273.677,181.658 273.724 C 181.705 273.771,181.897 273.034,182.086 272.086 C 182.274 271.137,182.390 270.323,182.342 270.276 C 182.295 270.229,182.103 270.966,181.914 271.914 M117.254 270.925 C 117.314 271.021,119.876 273.215,122.947 275.799 L 128.531 280.498 128.261 281.785 C 128.112 282.493,128.022 283.165,128.059 283.278 C 128.097 283.391,128.267 282.787,128.436 281.935 L 128.745 280.386 123.236 275.743 C 117.972 271.306,117.009 270.530,117.254 270.925 M181.015 276.215 C 180.771 277.438,180.610 278.477,180.657 278.524 C 180.704 278.570,180.942 277.608,181.185 276.385 C 181.429 275.162,181.590 274.123,181.543 274.076 C 181.496 274.030,181.258 274.992,181.015 276.215 M133.914 276.314 C 133.726 277.263,133.610 278.077,133.658 278.124 C 133.705 278.171,133.897 277.434,134.086 276.486 C 134.274 275.537,134.390 274.723,134.342 274.676 C 134.295 274.629,134.103 275.366,133.914 276.314 M98.289 277.766 C 97.142 278.303,96.098 279.621,95.421 281.385 C 94.854 282.861,92.717 292.450,92.859 292.876 C 92.898 292.994,93.043 292.508,93.182 291.795 C 95.184 281.483,96.197 278.849,98.538 277.871 C 102.996 276.009,110.786 283.919,112.321 291.868 L 112.597 293.300 112.492 292.110 C 111.826 284.566,102.939 275.591,98.289 277.766 M133.015 280.615 C 132.771 281.838,132.610 282.877,132.657 282.924 C 132.704 282.970,132.942 282.008,133.185 280.785 C 133.429 279.562,133.590 278.523,133.543 278.476 C 133.496 278.430,133.258 279.392,133.015 280.615 M180.114 280.514 C 179.926 281.463,179.810 282.277,179.858 282.324 C 179.905 282.371,180.097 281.634,180.286 280.686 C 180.474 279.737,180.590 278.923,180.542 278.876 C 180.495 278.829,180.303 279.566,180.114 280.514 M179.215 284.815 C 178.971 286.038,178.810 287.077,178.857 287.124 C 178.904 287.170,179.142 286.208,179.385 284.985 C 179.629 283.762,179.790 282.723,179.743 282.676 C 179.696 282.630,179.458 283.592,179.215 284.815 M132.114 284.914 C 131.926 285.863,131.810 286.677,131.858 286.724 C 131.905 286.771,132.097 286.034,132.286 285.086 C 132.474 284.137,132.590 283.323,132.542 283.276 C 132.495 283.229,132.303 283.966,132.114 284.914 M127.514 285.314 C 127.326 286.263,127.210 287.077,127.258 287.124 C 127.305 287.171,127.497 286.434,127.686 285.486 C 127.874 284.537,127.990 283.723,127.942 283.676 C 127.895 283.629,127.703 284.366,127.514 285.314 M131.215 289.215 C 130.971 290.438,130.810 291.477,130.857 291.524 C 130.904 291.570,131.142 290.608,131.385 289.385 C 131.629 288.162,131.790 287.123,131.743 287.076 C 131.696 287.030,131.458 287.992,131.215 289.215 M178.314 289.114 C 178.126 290.063,178.010 290.877,178.058 290.924 C 178.105 290.971,178.297 290.234,178.486 289.286 C 178.674 288.337,178.790 287.523,178.742 287.476 C 178.695 287.429,178.503 288.166,178.314 289.114 M100.414 290.328 C 99.732 291.195,98.541 296.031,98.921 296.392 C 99.981 297.398,104.928 301.400,105.113 301.400 C 105.346 301.400,105.720 300.053,105.537 299.870 C 105.488 299.821,105.388 300.101,105.315 300.491 C 105.242 300.881,105.135 301.200,105.078 301.200 C 104.833 301.200,99.000 296.143,99.002 295.932 C 99.016 294.171,100.351 290.385,101.084 290.029 C 101.415 289.868,101.431 289.824,101.165 289.814 C 100.980 289.806,100.642 290.037,100.414 290.328 M102.950 290.221 C 104.210 290.845,105.748 293.036,105.811 294.300 C 105.822 294.520,105.877 294.588,105.932 294.451 C 106.395 293.304,103.703 289.799,102.360 289.800 C 102.217 289.800,102.482 289.990,102.950 290.221 M177.415 293.415 C 177.171 294.638,177.010 295.677,177.057 295.724 C 177.104 295.770,177.342 294.808,177.585 293.585 C 177.829 292.362,177.990 291.323,177.943 291.276 C 177.896 291.230,177.658 292.192,177.415 293.415 M130.314 293.514 C 130.126 294.463,130.010 295.277,130.058 295.324 C 130.105 295.371,130.297 294.634,130.486 293.686 C 130.674 292.737,130.790 291.923,130.742 291.876 C 130.695 291.829,130.503 292.566,130.314 293.514 M92.314 294.914 C 92.126 295.863,92.010 296.677,92.058 296.724 C 92.105 296.771,92.297 296.034,92.486 295.086 C 92.674 294.137,92.790 293.323,92.742 293.276 C 92.695 293.229,92.503 293.966,92.314 294.914 M112.670 295.200 C 112.670 296.135,112.704 296.518,112.746 296.050 C 112.789 295.582,112.789 294.818,112.746 294.350 C 112.704 293.882,112.670 294.265,112.670 295.200 M106.066 296.100 C 106.067 296.870,106.103 297.160,106.146 296.746 C 106.189 296.331,106.189 295.701,106.144 295.346 C 106.100 294.990,106.065 295.330,106.066 296.100 M129.016 299.716 C 128.547 301.979,128.202 303.868,128.248 303.915 C 128.294 303.961,128.715 302.147,129.184 299.884 C 129.653 297.621,129.998 295.732,129.952 295.685 C 129.906 295.639,129.485 297.453,129.016 299.716 M176.514 297.714 C 176.326 298.663,176.210 299.477,176.258 299.524 C 176.305 299.571,176.497 298.834,176.686 297.886 C 176.874 296.937,176.990 296.123,176.942 296.076 C 176.895 296.029,176.703 296.766,176.514 297.714 M91.514 298.714 C 91.326 299.663,91.210 300.477,91.258 300.524 C 91.305 300.571,91.497 299.834,91.686 298.886 C 91.874 297.937,91.990 297.123,91.942 297.076 C 91.895 297.029,91.703 297.766,91.514 298.714 M112.450 297.900 C 112.453 298.340,112.494 298.496,112.541 298.248 C 112.589 297.999,112.587 297.639,112.537 297.448 C 112.487 297.256,112.448 297.460,112.450 297.900 M175.615 302.015 C 175.371 303.238,175.210 304.277,175.257 304.324 C 175.304 304.370,175.542 303.408,175.785 302.185 C 176.029 300.962,176.190 299.923,176.143 299.876 C 176.096 299.830,175.858 300.792,175.615 302.015 M111.435 303.054 C 111.086 304.732,110.800 306.167,110.800 306.243 C 110.800 306.318,113.072 308.289,115.850 310.623 C 118.628 312.956,120.975 314.931,121.068 315.010 C 121.160 315.090,121.085 315.893,120.901 316.794 C 120.717 317.696,120.607 318.473,120.655 318.522 C 120.730 318.596,121.401 315.571,121.400 315.162 C 121.400 315.087,119.128 313.116,116.350 310.783 C 113.572 308.449,111.225 306.474,111.133 306.393 C 111.042 306.313,111.253 304.880,111.604 303.211 C 111.955 301.541,112.203 300.137,112.156 300.089 C 112.109 300.042,111.784 301.376,111.435 303.054 M90.939 301.350 C 90.879 301.653,90.891 301.955,90.965 302.022 C 93.688 304.490,119.086 325.589,119.192 325.471 C 119.380 325.262,119.863 322.796,119.740 322.673 C 119.691 322.625,119.528 323.218,119.376 323.992 L 119.100 325.399 105.100 313.612 C 92.600 303.089,91.107 301.771,91.164 301.313 C 91.250 300.627,91.075 300.656,90.939 301.350 M127.714 305.914 C 127.526 306.863,127.410 307.677,127.458 307.724 C 127.505 307.771,127.697 307.034,127.886 306.086 C 128.074 305.137,128.190 304.323,128.142 304.276 C 128.095 304.229,127.903 304.966,127.714 305.914 M174.714 306.314 C 174.526 307.263,174.410 308.077,174.458 308.124 C 174.505 308.171,174.697 307.434,174.886 306.486 C 175.074 305.537,175.190 304.723,175.142 304.676 C 175.095 304.629,174.903 305.366,174.714 306.314 M126.815 310.215 C 126.571 311.438,126.410 312.477,126.457 312.524 C 126.504 312.570,126.742 311.608,126.985 310.385 C 127.229 309.162,127.390 308.123,127.343 308.076 C 127.296 308.030,127.058 308.992,126.815 310.215 M173.815 310.615 C 173.571 311.838,173.410 312.877,173.457 312.924 C 173.504 312.970,173.742 312.008,173.985 310.785 C 174.229 309.562,174.390 308.523,174.343 308.476 C 174.296 308.430,174.058 309.392,173.815 310.615 M125.914 314.514 C 125.726 315.463,125.610 316.277,125.658 316.324 C 125.705 316.371,125.897 315.634,126.086 314.686 C 126.274 313.737,126.390 312.923,126.342 312.876 C 126.295 312.829,126.103 313.566,125.914 314.514 M172.914 314.914 C 172.726 315.863,172.610 316.677,172.658 316.724 C 172.705 316.771,172.897 316.034,173.086 315.086 C 173.274 314.137,173.390 313.323,173.342 313.276 C 173.295 313.229,173.103 313.966,172.914 314.914 M125.015 318.815 C 124.771 320.038,124.610 321.077,124.657 321.124 C 124.704 321.170,124.942 320.208,125.185 318.985 C 125.429 317.762,125.590 316.723,125.543 316.676 C 125.496 316.630,125.258 317.592,125.015 318.815 M172.015 319.215 C 171.771 320.438,171.610 321.477,171.657 321.524 C 171.704 321.570,171.942 320.608,172.185 319.385 C 172.429 318.162,172.590 317.123,172.543 317.076 C 172.496 317.030,172.258 317.992,172.015 319.215 M120.114 320.514 C 119.926 321.463,119.810 322.277,119.858 322.324 C 119.905 322.371,120.097 321.634,120.286 320.686 C 120.474 319.737,120.590 318.923,120.542 318.876 C 120.495 318.829,120.303 319.566,120.114 320.514 M124.114 323.114 C 123.926 324.063,123.810 324.877,123.858 324.924 C 123.905 324.971,124.097 324.234,124.286 323.286 C 124.474 322.337,124.590 321.523,124.542 321.476 C 124.495 321.429,124.303 322.166,124.114 323.114 M171.114 323.514 C 170.926 324.463,170.810 325.277,170.858 325.324 C 170.905 325.371,171.097 324.634,171.286 323.686 C 171.474 322.737,171.590 321.923,171.542 321.876 C 171.495 321.829,171.303 322.566,171.114 323.514 M123.328 326.845 C 123.148 327.755,123.000 328.658,123.000 328.850 C 123.000 329.181,124.256 329.200,146.573 329.200 L 170.145 329.200 170.487 327.481 C 170.674 326.535,170.788 325.721,170.738 325.671 C 170.689 325.622,170.585 325.923,170.508 326.341 C 170.432 326.758,170.278 327.528,170.168 328.050 L 169.967 329.000 146.583 329.000 C 126.729 329.000,123.200 328.958,123.200 328.721 C 123.200 328.568,123.343 327.751,123.518 326.906 C 123.693 326.061,123.795 325.329,123.746 325.280 C 123.697 325.230,123.509 325.935,123.328 326.845 " stroke="none" fill="#78a2d2" fill-rule="evenodd"></path><path id="path2" d="M185.250 77.338 C 185.442 77.388,185.758 77.388,185.950 77.338 C 186.143 77.288,185.985 77.246,185.600 77.246 C 185.215 77.246,185.058 77.288,185.250 77.338 M180.250 77.538 C 180.442 77.588,180.758 77.588,180.950 77.538 C 181.143 77.488,180.985 77.446,180.600 77.446 C 180.215 77.446,180.058 77.488,180.250 77.538 M225.446 82.400 C 225.446 82.785,225.488 82.942,225.538 82.750 C 225.588 82.558,225.588 82.243,225.538 82.050 C 225.488 81.858,225.446 82.015,225.446 82.400 M171.450 86.738 C 171.643 86.788,171.958 86.788,172.150 86.738 C 172.343 86.688,172.185 86.646,171.800 86.646 C 171.415 86.646,171.258 86.688,171.450 86.738 M233.937 95.750 C 235.828 95.782,238.978 95.783,240.937 95.750 C 242.897 95.717,241.350 95.690,237.500 95.690 C 233.650 95.690,232.047 95.717,233.937 95.750 M251.150 95.745 C 251.507 95.789,252.093 95.789,252.450 95.745 C 252.808 95.700,252.515 95.664,251.800 95.664 C 251.085 95.664,250.793 95.700,251.150 95.745 M270.850 100.338 C 271.043 100.388,271.358 100.388,271.550 100.338 C 271.743 100.288,271.585 100.246,271.200 100.246 C 270.815 100.246,270.657 100.288,270.850 100.338 M318.900 116.400 C 319.442 116.950,319.930 117.400,319.985 117.400 C 320.040 117.400,319.642 116.950,319.100 116.400 C 318.558 115.850,318.070 115.400,318.015 115.400 C 317.960 115.400,318.358 115.850,318.900 116.400 M334.446 154.600 C 334.446 154.985,334.488 155.143,334.538 154.950 C 334.588 154.758,334.588 154.442,334.538 154.250 C 334.488 154.058,334.446 154.215,334.446 154.600 M334.446 161.000 C 334.446 161.385,334.488 161.543,334.538 161.350 C 334.588 161.158,334.588 160.843,334.538 160.650 C 334.488 160.458,334.446 160.615,334.446 161.000 M245.250 241.538 C 245.443 241.588,245.757 241.588,245.950 241.538 C 246.143 241.488,245.985 241.446,245.600 241.446 C 245.215 241.446,245.058 241.488,245.250 241.538 M239.253 241.744 C 239.557 241.789,240.007 241.788,240.253 241.741 C 240.499 241.693,240.250 241.656,239.700 241.657 C 239.150 241.659,238.949 241.698,239.253 241.744 M227.058 241.948 C 227.805 241.987,228.975 241.987,229.658 241.948 C 230.341 241.909,229.730 241.877,228.300 241.878 C 226.870 241.878,226.311 241.910,227.058 241.948 " stroke="none" fill="#4c84c4" fill-rule="evenodd"></path><path id="path3" d="" stroke="none" fill="#4884c4" fill-rule="evenodd"></path><path id="path4" d="M240.000 77.169 C 240.000 77.262,240.194 77.509,240.431 77.719 L 240.862 78.100 240.508 77.550 C 240.143 76.983,240.000 76.876,240.000 77.169 M250.400 77.463 C 250.400 77.497,250.693 77.790,251.050 78.113 L 251.700 78.700 251.113 78.050 C 250.565 77.444,250.400 77.308,250.400 77.463 M241.200 78.169 C 241.200 78.262,241.394 78.509,241.631 78.719 L 242.062 79.100 241.708 78.550 C 241.343 77.983,241.200 77.876,241.200 78.169 M242.400 79.165 C 242.400 79.256,242.639 79.548,242.932 79.815 L 243.463 80.300 242.994 79.650 C 242.506 78.974,242.400 78.887,242.400 79.165 M249.800 85.188 C 249.800 85.292,249.904 85.441,250.031 85.519 C 250.172 85.607,250.208 85.574,250.122 85.435 C 250.020 85.270,251.055 85.193,253.941 85.150 L 257.900 85.091 253.850 85.046 C 251.420 85.018,249.800 85.075,249.800 85.188 M255.374 90.054 C 255.459 90.139,257.277 90.184,259.414 90.154 L 263.300 90.099 259.260 90.000 C 257.037 89.945,255.289 89.969,255.374 90.054 M250.417 137.875 C 250.463 137.916,251.445 137.998,252.600 138.058 C 254.047 138.132,254.389 138.115,253.700 138.001 C 252.679 137.832,250.266 137.739,250.417 137.875 M257.017 138.074 C 257.063 138.115,257.550 138.201,258.100 138.264 C 258.774 138.342,258.937 138.324,258.600 138.210 C 258.100 138.040,256.859 137.934,257.017 138.074 M261.000 138.400 C 261.771 138.647,262.182 138.647,261.800 138.400 C 261.635 138.293,261.275 138.214,261.000 138.223 L 260.500 138.240 261.000 138.400 M263.500 138.600 C 264.098 138.857,264.598 138.857,264.200 138.600 C 264.035 138.493,263.720 138.411,263.500 138.417 L 263.100 138.428 263.500 138.600 M277.000 141.993 C 277.000 142.107,277.127 142.200,277.283 142.200 C 277.439 142.200,277.612 142.313,277.668 142.450 C 277.744 142.638,277.772 142.640,277.784 142.457 C 277.793 142.323,277.620 142.118,277.400 142.000 C 277.129 141.855,277.000 141.853,277.000 141.993 M278.723 143.087 C 278.789 143.259,278.971 143.400,279.128 143.400 C 279.284 143.400,279.464 143.535,279.528 143.700 C 279.591 143.865,279.728 144.000,279.833 144.000 C 280.121 144.000,279.857 143.668,279.195 143.197 C 278.747 142.877,278.632 142.851,278.723 143.087 M280.683 144.637 C 280.982 145.042,281.530 145.604,281.900 145.886 C 282.270 146.169,282.627 146.571,282.694 146.781 C 282.761 146.991,282.954 147.216,283.125 147.282 C 283.543 147.442,282.480 146.137,281.186 144.900 C 280.261 144.017,280.203 143.986,280.683 144.637 M283.400 147.788 C 283.400 147.905,283.490 148.000,283.600 148.000 C 283.710 148.000,283.800 148.135,283.800 148.300 C 283.800 148.465,283.893 148.600,284.007 148.600 C 284.149 148.600,284.149 148.478,284.006 148.211 C 283.755 147.742,283.400 147.495,283.400 147.788 M287.017 158.400 C 287.023 158.565,287.105 158.880,287.200 159.100 L 287.372 159.500 287.383 159.100 C 287.389 158.880,287.307 158.565,287.200 158.400 C 287.028 158.133,287.007 158.133,287.017 158.400 M287.125 164.625 C 286.958 165.459,287.120 165.620,287.300 164.800 C 287.376 164.454,287.396 164.130,287.345 164.079 C 287.294 164.028,287.195 164.274,287.125 164.625 M283.305 178.984 C 283.233 179.211,283.038 179.533,282.873 179.699 C 282.707 179.864,282.666 180.000,282.781 180.000 C 283.015 180.000,283.683 178.816,283.533 178.666 C 283.480 178.613,283.377 178.756,283.305 178.984 M282.200 180.886 C 282.200 181.043,282.059 181.313,281.886 181.486 C 281.713 181.659,281.666 181.800,281.781 181.800 C 281.896 181.800,282.129 181.530,282.300 181.200 C 282.477 180.858,282.522 180.600,282.405 180.600 C 282.292 180.600,282.200 180.729,282.200 180.886 M281.344 182.402 C 281.155 182.624,281.000 182.894,281.000 183.002 C 281.000 183.111,280.910 183.200,280.800 183.200 C 280.690 183.200,280.600 183.335,280.600 183.500 C 280.600 183.665,280.510 183.800,280.400 183.800 C 280.290 183.800,280.200 183.928,280.200 184.083 C 280.200 184.239,280.088 184.407,279.950 184.456 C 279.813 184.505,279.759 184.609,279.832 184.688 C 279.939 184.804,281.005 183.395,281.677 182.250 C 281.898 181.874,281.732 181.949,281.344 182.402 M278.764 186.101 C 278.619 186.267,278.275 186.677,278.000 187.012 C 277.139 188.061,273.609 191.600,273.423 191.600 C 273.326 191.600,273.084 191.847,272.887 192.150 C 272.013 193.487,276.955 188.701,278.567 186.649 C 279.194 185.851,279.340 185.444,278.764 186.101 M271.928 192.900 C 271.864 193.065,271.684 193.200,271.528 193.200 C 271.371 193.200,271.191 193.335,271.128 193.500 C 271.064 193.665,270.875 193.800,270.706 193.800 C 270.538 193.800,270.400 193.890,270.400 194.000 C 270.400 194.110,270.275 194.200,270.121 194.200 C 269.968 194.200,269.789 194.340,269.723 194.511 C 269.658 194.683,270.142 194.445,270.801 193.983 C 272.075 193.089,272.586 192.600,272.246 192.600 C 272.134 192.600,271.991 192.735,271.928 192.900 M269.200 194.767 C 269.200 194.895,269.106 195.000,268.992 195.000 C 268.877 195.000,268.585 195.191,268.342 195.425 C 267.948 195.803,267.944 195.826,268.300 195.639 C 269.045 195.248,269.500 194.833,269.350 194.683 C 269.267 194.601,269.200 194.638,269.200 194.767 M267.600 195.796 C 267.600 195.904,267.375 196.049,267.100 196.118 C 266.825 196.187,266.600 196.326,266.600 196.427 C 266.600 196.528,266.870 196.471,267.200 196.300 C 267.711 196.036,268.022 195.600,267.700 195.600 C 267.645 195.600,267.600 195.688,267.600 195.796 M244.800 202.400 C 244.533 202.572,244.533 202.594,244.800 202.594 C 244.965 202.594,245.235 202.507,245.400 202.400 C 245.667 202.228,245.667 202.206,245.400 202.206 C 245.235 202.206,244.965 202.293,244.800 202.400 M242.900 202.600 L 242.500 202.772 242.900 202.783 C 243.120 202.789,243.435 202.707,243.600 202.600 C 243.998 202.343,243.498 202.343,242.900 202.600 M240.900 202.800 L 240.500 202.972 240.900 202.983 C 241.120 202.989,241.435 202.907,241.600 202.800 C 241.998 202.543,241.498 202.543,240.900 202.800 M238.400 203.000 L 237.900 203.160 238.400 203.177 C 238.675 203.186,239.035 203.107,239.200 203.000 C 239.582 202.753,239.171 202.753,238.400 203.000 M235.600 203.200 L 235.100 203.360 235.600 203.366 C 235.875 203.369,236.280 203.295,236.500 203.200 L 236.900 203.028 236.500 203.034 C 236.280 203.037,235.875 203.112,235.600 203.200 M232.100 203.400 L 231.500 203.553 232.100 203.556 C 232.430 203.558,232.925 203.488,233.200 203.400 L 233.700 203.240 233.200 203.244 C 232.925 203.246,232.430 203.316,232.100 203.400 M227.500 203.600 L 226.700 203.743 227.500 203.748 C 227.940 203.751,228.570 203.684,228.900 203.600 L 229.500 203.447 228.900 203.452 C 228.570 203.455,227.940 203.521,227.500 203.600 M220.200 203.800 L 218.700 203.928 220.100 203.944 C 220.870 203.953,221.995 203.892,222.600 203.808 L 223.700 203.656 222.700 203.664 C 222.150 203.669,221.025 203.730,220.200 203.800 M112.846 259.800 C 112.846 260.185,112.888 260.343,112.938 260.150 C 112.988 259.957,112.988 259.643,112.938 259.450 C 112.888 259.257,112.846 259.415,112.846 259.800 " stroke="none" fill="#5098cc" fill-rule="evenodd"></path></g></svg>